<svg width="373" height="118" viewBox="0 0 373 118" fill="none" xmlns="http://www.w3.org/2000/svg">
<path d="M231.786 0C224.816 0 219.206 5.61 219.206 12.58V117.47H231.786V0Z" fill="#333333"/>
<path d="M343.73 49.98C337.78 49.98 332.17 51.68 327.58 54.91V12.58C327.58 5.61 321.97 0 315 0V117.47H327.58V112.54C332.17 115.6 337.78 117.47 343.73 117.47C359.54 117.47 372.29 104.55 372.29 88.74V78.71C372.29 62.73 359.54 49.98 343.73 49.98ZM359.71 88.74C359.71 97.58 352.57 104.89 343.73 104.89C334.72 104.89 327.58 97.58 327.58 88.74V78.71C327.58 69.87 334.72 62.56 343.73 62.56C352.57 62.56 359.71 69.87 359.71 78.71V88.74Z" fill="#333333"/>
<path d="M239 77.9471V88.0529C239 103.982 253.867 117 272.5 117C279.438 117 285.781 115.116 291.133 112.033V117H306V49C300.45 49 295.692 51.398 293.115 55.1662C290.177 53.0804 286.738 51.4747 283.005 50.4255V64.5226C287.916 67.469 291.133 72.4102 291.133 77.9471V88.0529C291.133 96.9597 282.808 104.325 272.5 104.325C262.192 104.325 253.669 96.9597 253.669 88.0529V77.9471C253.669 72.3848 256.993 67.4236 262 64.4821V50.4255C248.581 54.1938 239 65.0218 239 77.9471Z" fill="#333333"/>
<path d="M69.1954 26.476V117H54.5554V108.582C52.0341 111.673 48.9028 113.991 45.1614 115.536C41.5014 117.081 37.4348 117.854 32.9614 117.854C26.6988 117.854 21.0461 116.471 16.0034 113.706C11.0421 110.941 7.13809 107.037 4.29142 101.994C1.44476 96.87 0.0214233 91.014 0.0214233 84.426C0.0214233 77.838 1.44476 72.0227 4.29142 66.98C7.13809 61.9373 11.0421 58.0333 16.0034 55.268C21.0461 52.5027 26.6988 51.12 32.9614 51.12C37.2721 51.12 41.2168 51.852 44.7954 53.316C48.3741 54.78 51.4241 56.976 53.9454 59.904V26.476H69.1954ZM34.7914 104.8C38.4514 104.8 41.7454 103.987 44.6734 102.36C47.6014 100.652 49.9194 98.2527 51.6274 95.162C53.3354 92.0713 54.1894 88.4927 54.1894 84.426C54.1894 80.3593 53.3354 76.7807 51.6274 73.69C49.9194 70.5993 47.6014 68.2407 44.6734 66.614C41.7454 64.906 38.4514 64.052 34.7914 64.052C31.1314 64.052 27.8374 64.906 24.9094 66.614C21.9814 68.2407 19.6634 70.5993 17.9554 73.69C16.2474 76.7807 15.3934 80.3593 15.3934 84.426C15.3934 88.4927 16.2474 92.0713 17.9554 95.162C19.6634 98.2527 21.9814 100.652 24.9094 102.36C27.8374 103.987 31.1314 104.8 34.7914 104.8Z" fill="#333333"/>
<path d="M112.813 104.922C119.889 104.922 125.786 102.563 130.503 97.846L138.555 107.24C135.709 110.737 132.049 113.381 127.575 115.17C123.102 116.959 118.059 117.854 112.447 117.854C105.29 117.854 98.9866 116.431 93.5373 113.584C88.088 110.737 83.8586 106.793 80.8493 101.75C77.9213 96.626 76.4573 90.8513 76.4573 84.426C76.4573 78.082 77.8806 72.3887 80.7273 67.346C83.6553 62.222 87.6406 58.2367 92.6833 55.39C97.8073 52.5433 103.582 51.12 110.007 51.12C116.107 51.12 121.638 52.462 126.599 55.146C131.642 57.7487 135.627 61.5307 138.555 66.492C141.483 71.372 142.947 77.106 142.947 83.694L93.0493 93.454C94.5946 97.1953 97.0753 100.042 100.491 101.994C103.907 103.946 108.015 104.922 112.813 104.922ZM110.007 63.32C104.395 63.32 99.8406 65.15 96.3433 68.81C92.9273 72.47 91.2193 77.3907 91.2193 83.572V83.694L128.063 76.618C127.006 72.6327 124.851 69.42 121.597 66.98C118.425 64.54 114.562 63.32 110.007 63.32Z" fill="#333333"/>
<path d="M210.087 51.852L182.149 117H166.411L138.473 51.852H154.333L174.585 100.164L195.447 51.852H210.087Z" fill="#333333"/>
<path d="M287 88.211C287 95.0622 278.33 101 270.987 101C261.201 100.086 257 91.9091 257 85.0413C257 85.0413 261.201 87.2975 264.759 87.2975C268.318 87.2975 271.876 85.4705 274.99 83.1868C277.659 81.8165 278.548 81.8164 280.773 82.2732L287 84.557V88.211Z" fill="#623CF3"/>
<path d="M277 41C277 43.7614 274.761 46 272 46C269.239 46 267 43.7614 267 41C267 38.2386 269.239 36 272 36C274.761 36 277 38.2386 277 41Z" fill="#623CF3"/>
<path d="M268 28C268 30.2091 266.209 32 264 32C261.791 32 260 30.2091 260 28C260 25.7909 261.791 24 264 24C266.209 24 268 25.7909 268 28Z" fill="#623CF3"/>
<path d="M272 15C272 16.6569 270.657 18 269 18C267.343 18 266 16.6569 266 15C266 13.3431 267.343 12 269 12C270.657 12 272 13.3431 272 15Z" fill="#623CF3"/>
</svg>
