<?xml version="1.0" encoding="UTF-8" standalone="no"?> <!-- Created with Vectornator (http://vectornator.io/) --><!DOCTYPE svg PUBLIC "-//W3C//DTD SVG 1.1//EN" "http://www.w3.org/Graphics/SVG/1.1/DTD/svg11.dtd">
<svg height="100%" stroke-miterlimit="10" style="fill-rule:nonzero;clip-rule:evenodd;stroke-linecap:round;stroke-linejoin:round;" version="1.1" viewBox="0 0 1200 260" width="100%" xml:space="preserve" xmlns="http://www.w3.org/2000/svg" xmlns:vectornator="http://vectornator.io" xmlns:xlink="http://www.w3.org/1999/xlink">
<metadata>
<vectornator:setting key="IsTimeLapseWatermarkDisabled" value="false"/>
<vectornator:setting key="UndoHistoryDisabled" value="true"/>
<vectornator:setting key="VNDimensionsVisible" value="true"/>
<vectornator:setting key="VNSnapToGuides" value="true"/>
<vectornator:setting key="WDCMYKEnabledKey" value="false"/>
<vectornator:setting key="WDDisplayWhiteBackground" value="false"/>
<vectornator:setting key="WDDynamicGuides" value="false"/>
<vectornator:setting key="WDGuidesVisible" value="true"/>
<vectornator:setting key="WDIsolateActiveLayer" value="false"/>
<vectornator:setting key="WDOutlineMode" value="false"/>
<vectornator:setting key="WDRulersVisible" value="true"/>
<vectornator:setting key="WDSnapToEdges" value="false"/>
<vectornator:setting key="WDSnapToGrid" value="false"/>
<vectornator:setting key="WDSnapToPoints" value="false"/>
<vectornator:setting key="WDUnits" value="Pixels"/>
</metadata>
<defs>
<clipPath id="TextBounds">
<rect height="21.511" width="113.524" x="1073.45" y="10.514"/>
</clipPath>
<clipPath id="TextBounds_2">
<rect height="21.511" width="140.161" x="900.863" y="10.514"/>
</clipPath>
<clipPath id="TextBounds_3">
<rect height="21.511" width="140.161" x="477.718" y="61.5667"/>
</clipPath>
<clipPath id="TextBounds_4">
<rect height="22.942" width="161.296" x="83.678" y="60.8512"/>
</clipPath>
<clipPath id="TextBounds_5">
<rect height="21.511" width="140.161" x="179.215" y="10.514"/>
</clipPath>
<clipPath id="TextBounds_6">
<rect height="21.511" width="140.161" x="10.1952" y="10.514"/>
</clipPath>
</defs>
<g id="Layer-1" vectornator:layerName="Layer 1">
<path d="M6.87871 154.026C17.1422 158.752 36.4991 155.272 47.4719 155.272C68.9217 155.272 90.9131 156.864 112.421 157.765C194.267 161.191 276.708 159.011 358.687 159.011C403.247 159.011 448.114 160.425 492.644 159.011C585.738 156.054 679.504 152.502 772.738 155.272C834.118 157.096 894.45 166.912 955.407 172.72C993.771 176.375 1032.01 176.167 1070.42 177.705C1111.41 179.346 1152.22 182.105 1193.12 184.653" fill="none" fill-rule="evenodd" opacity="1" stroke="#000000" stroke-linecap="round" stroke-linejoin="round" stroke-width="3.20936"/>
<path d="M161.615 136.842C161.615 135.596 161.615 131.857 161.615 133.104C161.615 145.399 158.222 164.243 164.321 175.477" fill="none" fill-rule="evenodd" opacity="1" stroke="#000000" stroke-linecap="round" stroke-linejoin="round" stroke-width="3.20936"/>
<path d="M544.063 135.332C544.965 134.917 546.394 133.223 546.769 134.086C547.774 136.4 546.561 139.078 546.769 141.563C547.639 151.986 548.401 165.757 553.534 175.212" fill="none" fill-rule="evenodd" opacity="1" stroke="#000000" stroke-linecap="round" stroke-linejoin="round" stroke-width="3.20936"/>
<path d="M1027.12 154.026C1027.05 153.898 1023.24 147.795 1025.77 147.795C1027.42 147.795 1026.72 152.714 1028.48 160.257C1031.12 171.639 1031.25 190.227 1040.65 198.891" fill="none" fill-rule="evenodd" opacity="1" stroke="#000000" stroke-linecap="round" stroke-linejoin="round" stroke-width="3.20936"/>
<g opacity="1">
<path d="M141.371 199.057C141.371 198.829 141.322 197.853 141.576 197.736C141.77 197.647 141.781 198.103 141.781 198.302C141.781 199.049 141.298 200.687 141.167 201.322C140.698 203.587 140.043 205.717 139.322 207.929C138.993 208.939 138.723 209.97 138.297 210.949C138.161 211.263 137.581 212.081 137.888 211.893C139.835 210.697 140.171 209.102 142.806 208.495C150.524 206.718 156.031 212.292 153.668 219.443C152.026 224.411 145.654 225.179 140.962 224.539C139.827 224.384 135.622 223.816 136.248 222.085" fill="none" fill-rule="evenodd" opacity="1" stroke="#000000" stroke-linecap="round" stroke-linejoin="round" stroke-width="3.33335"/>
<path d="M142.806 198.114C142.633 198.034 141.986 197.786 141.986 197.547C141.986 197.165 142.8 197.359 143.216 197.359C145.123 197.359 147.049 197.423 148.954 197.359C151.745 197.263 154.384 196.415 157.152 196.415" fill="none" fill-rule="evenodd" opacity="1" stroke="#000000" stroke-linecap="round" stroke-linejoin="round" stroke-width="3.33335"/>
<path d="M170.473 199.435C170.609 198.806 170.259 197.834 170.882 197.547C171.168 197.416 170.311 201.51 170.268 201.7C169.808 203.712 167.17 210.662 168.218 212.27C168.939 213.377 171.516 211.326 172.317 211.326" fill="none" fill-rule="evenodd" opacity="1" stroke="#000000" stroke-linecap="round" stroke-linejoin="round" stroke-width="3.33335"/>
<path d="M165.759 204.72C165.071 204.403 169.344 204.437 170.063 204.342C171.933 204.096 173.692 203.776 175.596 203.776" fill="none" fill-rule="evenodd" opacity="1" stroke="#000000" stroke-linecap="round" stroke-linejoin="round" stroke-width="3.33335"/>
<path d="M181.949 197.736C181.949 196.372 182.261 200.662 182.154 201.322C181.817 203.392 181.445 205.513 180.924 207.551C180.705 208.408 180.483 209.032 180.105 209.816C179.918 210.202 179.055 211.082 179.49 210.949C181.37 210.372 183.388 205.76 186.048 206.985C188.64 208.179 185.597 213.591 187.687 213.591" fill="none" fill-rule="evenodd" opacity="1" stroke="#000000" stroke-linecap="round" stroke-linejoin="round" stroke-width="3.33335"/>
</g>
<path d="M532.276 212.202C527.007 209.775 538.32 198.418 540.126 206.067C542.015 214.073 534.473 222.637 530.136 228.852C528.579 231.081 526.952 234.199 526.092 233.671C523.34 231.982 531.264 228.979 532.276 228.852C536.172 228.362 540.078 229.506 543.932 229.728C545.745 229.832 547.124 228.852 548.689 228.852" fill="none" fill-rule="evenodd" opacity="1" stroke="#000000" stroke-linecap="round" stroke-linejoin="round" stroke-width="3.33335"/>
<path d="M557.371 206.834C557.25 207.067 557.718 205.917 557.49 206.067C556.621 206.639 555.764 209.247 555.587 209.792C555.139 211.166 554.676 212.543 554.397 213.954C553.63 217.84 551.485 227.92 559.393 226.88C562.551 226.464 565.213 223.602 567.004 221.403C571.205 216.244 571.086 210.605 567.242 205.191C564.134 200.813 559.424 202.859 557.371 206.834Z" fill="none" fill-rule="evenodd" opacity="1" stroke="#000000" stroke-linecap="round" stroke-linejoin="round" stroke-width="3.33335"/>
<path d="M585.795 195.552C585.795 200.151 576.074 210.298 587.936 208.477" fill="none" fill-rule="evenodd" opacity="1" stroke="#000000" stroke-linecap="round" stroke-linejoin="round" stroke-width="3.33335"/>
<path d="M577.946 203.657C573.791 201.744 585.651 201.686 586.271 201.686" fill="none" fill-rule="evenodd" opacity="1" stroke="#000000" stroke-linecap="round" stroke-linejoin="round" stroke-width="4.10305"/>
<path d="M596.261 196.209C598.025 195.126 594.268 203.992 593.883 205.41C593.736 205.95 592.565 206.944 593.169 206.944C594.24 206.944 596.264 203.533 598.878 203.877C600.947 204.149 599.002 206.839 600.067 207.82C600.905 208.592 602.61 208.258 603.635 208.258" fill="none" fill-rule="evenodd" opacity="1" stroke="#000000" stroke-linecap="round" stroke-linejoin="round" stroke-width="3.33335"/>
<path d="M994.787 225.825C994.787 218.815 1012.68 215.34 1009.17 225.566C1008.83 226.563 1008.32 227.512 1007.76 228.423C1006.5 230.482 1005.08 232.041 1003.53 233.879C1003.32 234.133 998.557 239.252 998.172 239.075C997.92 238.958 998.067 238.536 998.172 238.295C998.882 236.661 1003.1 235.548 1004.66 235.438C1008.89 235.138 1011.51 237.392 1011.71 241.413C1012.05 248.333 1006.74 253.355 999.582 253.882C998.387 253.97 989.693 254.175 991.121 251.544" fill="none" fill-rule="evenodd" opacity="1" stroke="#000000" stroke-linecap="round" stroke-linejoin="round" stroke-width="3.33335"/>
<path d="M1025.95 230.502C1026.38 229.853 1026.77 229.163 1026.94 228.423C1026.99 228.234 1026.51 228.53 1026.38 228.683C1025.83 229.328 1025.4 230.05 1024.97 230.761C1024.18 232.043 1023.43 233.341 1022.71 234.658C1021.73 236.46 1020.7 238.244 1019.89 240.114C1017.99 244.5 1016.46 256.06 1025.53 254.921C1029.92 254.37 1033.43 250.998 1036.25 248.167C1041.67 242.717 1043.16 234.828 1039.07 228.164C1037.56 225.7 1034.14 224.426 1031.17 225.566C1028.62 226.545 1026.67 229.002 1025.25 231.021C1025.09 231.254 1025.8 230.739 1025.95 230.502Z" fill="none" fill-rule="evenodd" opacity="1" stroke="#000000" stroke-linecap="round" stroke-linejoin="round" stroke-width="3.33335"/>
<path d="M1055.71 223.228C1055.87 222.785 1056.4 221.476 1056.28 221.929C1055.19 225.916 1052.07 229.327 1051.2 233.359C1050.23 237.81 1053.61 237.776 1057.12 237.776" fill="none" fill-rule="evenodd" opacity="1" stroke="#000000" stroke-linecap="round" stroke-linejoin="round" stroke-width="3.33335"/>
<path d="M1048.66 231.021C1051.28 229.41 1056.4 230.717 1059.38 231.021" fill="none" fill-rule="evenodd" opacity="1" stroke="#000000" stroke-linecap="round" stroke-linejoin="round" stroke-width="3.33335"/>
<path d="M1070.1 223.747C1070.99 222.095 1069.64 227.589 1069.53 227.904C1068.54 230.817 1065.02 234.752 1065.02 237.776C1065.02 238.209 1065.79 237.273 1066.15 236.996C1066.87 236.442 1067.62 235.918 1068.4 235.438C1069.99 234.464 1072.34 233.422 1074.33 233.879C1078.25 234.782 1072.99 240.146 1076.3 241.672" fill="none" fill-rule="evenodd" opacity="1" stroke="#000000" stroke-linecap="round" stroke-linejoin="round" stroke-width="3.33335"/>
<g opacity="1">
<g opacity="1">
<path d="M1068.03 6.46561L1192.38 6.46561C1193.91 6.46561 1195.15 7.79119 1195.15 9.42639L1195.15 33.1126C1195.15 34.7478 1193.91 36.0734 1192.38 36.0734L1068.03 36.0734C1066.5 36.0734 1065.27 34.7478 1065.27 33.1126L1065.27 9.42639C1065.27 7.79119 1066.5 6.46561 1068.03 6.46561Z" fill="#efefef" fill-rule="evenodd" opacity="1" stroke="none"/>
<g fill="#000000" opacity="1" stroke="none">
<path clip-path="url(#TextBounds)" d="M1082.87 27.938L1082.87 15.338L1084.2 15.338L1084.2 26.786L1091.26 26.786L1091.26 27.938L1082.87 27.938Z" fill-rule="evenodd"/>
<path clip-path="url(#TextBounds)" d="M1099.12 27.938L1099.12 25.85L1099.07 25.508L1099.07 22.016C1099.07 21.212 1098.84 20.594 1098.39 20.162C1097.94 19.73 1097.27 19.514 1096.39 19.514C1095.77 19.514 1095.19 19.616 1094.64 19.82C1094.09 20.024 1093.62 20.294 1093.24 20.63L1092.66 19.676C1093.14 19.268 1093.72 18.953 1094.39 18.731C1095.06 18.509 1095.77 18.398 1096.51 18.398C1097.74 18.398 1098.68 18.701 1099.35 19.307C1100.01 19.913 1100.35 20.834 1100.35 22.07L1100.35 27.938L1099.12 27.938ZM1095.86 28.028C1095.16 28.028 1094.54 27.911 1094.02 27.677C1093.5 27.443 1093.1 27.119 1092.82 26.705C1092.55 26.291 1092.41 25.814 1092.41 25.274C1092.41 24.782 1092.52 24.335 1092.76 23.933C1092.99 23.531 1093.38 23.207 1093.91 22.961C1094.44 22.715 1095.16 22.592 1096.06 22.592L1099.32 22.592L1099.32 23.546L1096.1 23.546C1095.19 23.546 1094.55 23.708 1094.2 24.032C1093.84 24.356 1093.67 24.758 1093.67 25.238C1093.67 25.778 1093.88 26.21 1094.3 26.534C1094.72 26.858 1095.31 27.02 1096.06 27.02C1096.78 27.02 1097.4 26.855 1097.92 26.525C1098.45 26.195 1098.83 25.718 1099.07 25.094L1099.36 25.976C1099.12 26.6 1098.7 27.098 1098.1 27.47C1097.51 27.842 1096.76 28.028 1095.86 28.028Z" fill-rule="evenodd"/>
<path clip-path="url(#TextBounds)" d="M1107.73 28.028C1106.92 28.028 1106.22 27.878 1105.62 27.578C1105.02 27.278 1104.55 26.828 1104.22 26.228C1103.89 25.628 1103.73 24.878 1103.73 23.978L1103.73 18.488L1105.01 18.488L1105.01 23.834C1105.01 24.842 1105.26 25.601 1105.75 26.111C1106.25 26.621 1106.95 26.876 1107.85 26.876C1108.51 26.876 1109.08 26.741 1109.57 26.471C1110.06 26.201 1110.43 25.808 1110.69 25.292C1110.94 24.776 1111.07 24.158 1111.07 23.438L1111.07 18.488L1112.35 18.488L1112.35 27.938L1111.13 27.938L1111.13 25.346L1111.33 25.814C1111.03 26.51 1110.56 27.053 1109.93 27.443C1109.3 27.833 1108.57 28.028 1107.73 28.028Z" fill-rule="evenodd"/>
<path clip-path="url(#TextBounds)" d="M1120.74 18.398C1121.51 18.398 1122.18 18.545 1122.76 18.839C1123.35 19.133 1123.8 19.58 1124.13 20.18C1124.46 20.78 1124.63 21.536 1124.63 22.448L1124.63 27.938L1123.35 27.938L1123.35 22.574C1123.35 21.578 1123.1 20.825 1122.6 20.315C1122.1 19.805 1121.41 19.55 1120.51 19.55C1119.83 19.55 1119.25 19.685 1118.75 19.955C1118.25 20.225 1117.87 20.615 1117.6 21.125C1117.33 21.635 1117.19 22.25 1117.19 22.97L1117.19 27.938L1115.92 27.938L1115.92 18.488L1117.14 18.488L1117.14 21.08L1116.94 20.594C1117.24 19.91 1117.72 19.373 1118.38 18.983C1119.04 18.593 1119.83 18.398 1120.74 18.398Z" fill-rule="evenodd"/>
<path clip-path="url(#TextBounds)" d="M1132.01 28.028C1131.07 28.028 1130.23 27.821 1129.5 27.407C1128.76 26.993 1128.18 26.423 1127.76 25.697C1127.34 24.971 1127.13 24.14 1127.13 23.204C1127.13 22.256 1127.34 21.422 1127.76 20.702C1128.18 19.982 1128.76 19.418 1129.5 19.01C1130.23 18.602 1131.07 18.398 1132.01 18.398C1132.81 18.398 1133.54 18.554 1134.19 18.866C1134.83 19.178 1135.34 19.646 1135.72 20.27L1134.76 20.918C1134.44 20.438 1134.04 20.084 1133.56 19.856C1133.08 19.628 1132.55 19.514 1131.99 19.514C1131.32 19.514 1130.71 19.667 1130.17 19.973C1129.63 20.279 1129.21 20.708 1128.89 21.26C1128.58 21.812 1128.43 22.46 1128.43 23.204C1128.43 23.948 1128.58 24.596 1128.89 25.148C1129.21 25.7 1129.63 26.129 1130.17 26.435C1130.71 26.741 1131.32 26.894 1131.99 26.894C1132.55 26.894 1133.08 26.78 1133.56 26.552C1134.04 26.324 1134.44 25.976 1134.76 25.508L1135.72 26.156C1135.34 26.768 1134.83 27.233 1134.19 27.551C1133.54 27.869 1132.81 28.028 1132.01 28.028Z" fill-rule="evenodd"/>
<path clip-path="url(#TextBounds)" d="M1142.9 18.398C1143.67 18.398 1144.34 18.545 1144.92 18.839C1145.5 19.133 1145.96 19.58 1146.29 20.18C1146.62 20.78 1146.79 21.536 1146.79 22.448L1146.79 27.938L1145.51 27.938L1145.51 22.574C1145.51 21.578 1145.26 20.825 1144.76 20.315C1144.26 19.805 1143.56 19.55 1142.66 19.55C1141.99 19.55 1141.41 19.685 1140.91 19.955C1140.41 20.225 1140.03 20.615 1139.76 21.125C1139.49 21.635 1139.35 22.25 1139.35 22.97L1139.35 27.938L1138.07 27.938L1138.07 14.582L1139.35 14.582L1139.35 21.08L1139.1 20.594C1139.4 19.91 1139.88 19.373 1140.54 18.983C1141.2 18.593 1141.99 18.398 1142.9 18.398Z" fill-rule="evenodd"/>
<path clip-path="url(#TextBounds)" d="M1150.24 27.938L1150.24 18.488L1151.52 18.488L1151.52 27.938L1150.24 27.938ZM1150.89 16.4C1150.63 16.4 1150.4 16.31 1150.22 16.13C1150.04 15.95 1149.95 15.734 1149.95 15.482C1149.95 15.23 1150.04 15.017 1150.22 14.843C1150.4 14.669 1150.63 14.582 1150.89 14.582C1151.15 14.582 1151.38 14.666 1151.56 14.834C1151.74 15.002 1151.83 15.212 1151.83 15.464C1151.83 15.728 1151.74 15.95 1151.56 16.13C1151.39 16.31 1151.17 16.4 1150.89 16.4Z" fill-rule="evenodd"/>
<path clip-path="url(#TextBounds)" d="M1159.91 18.398C1160.68 18.398 1161.35 18.545 1161.93 18.839C1162.51 19.133 1162.97 19.58 1163.3 20.18C1163.63 20.78 1163.8 21.536 1163.8 22.448L1163.8 27.938L1162.52 27.938L1162.52 22.574C1162.52 21.578 1162.27 20.825 1161.77 20.315C1161.27 19.805 1160.57 19.55 1159.67 19.55C1159 19.55 1158.42 19.685 1157.92 19.955C1157.42 20.225 1157.04 20.615 1156.77 21.125C1156.5 21.635 1156.36 22.25 1156.36 22.97L1156.36 27.938L1155.08 27.938L1155.08 18.488L1156.31 18.488L1156.31 21.08L1156.11 20.594C1156.41 19.91 1156.89 19.373 1157.55 18.983C1158.21 18.593 1159 18.398 1159.91 18.398Z" fill-rule="evenodd"/>
<path clip-path="url(#TextBounds)" d="M1171.28 31.52C1170.42 31.52 1169.59 31.394 1168.8 31.142C1168.01 30.89 1167.37 30.53 1166.87 30.062L1167.52 29.09C1167.97 29.486 1168.51 29.801 1169.17 30.035C1169.82 30.269 1170.52 30.386 1171.25 30.386C1172.45 30.386 1173.33 30.107 1173.89 29.549C1174.46 28.991 1174.74 28.124 1174.74 26.948L1174.74 24.59L1174.92 22.97L1174.79 21.35L1174.79 18.488L1176.02 18.488L1176.02 26.786C1176.02 28.418 1175.62 29.615 1174.82 30.377C1174.02 31.139 1172.84 31.52 1171.28 31.52ZM1171.05 27.578C1170.15 27.578 1169.34 27.383 1168.62 26.993C1167.9 26.603 1167.33 26.06 1166.92 25.364C1166.5 24.668 1166.3 23.87 1166.3 22.97C1166.3 22.07 1166.5 21.275 1166.92 20.585C1167.33 19.895 1167.9 19.358 1168.62 18.974C1169.34 18.59 1170.15 18.398 1171.05 18.398C1171.89 18.398 1172.65 18.572 1173.32 18.92C1173.99 19.268 1174.52 19.784 1174.92 20.468C1175.32 21.152 1175.51 21.986 1175.51 22.97C1175.51 23.954 1175.32 24.788 1174.92 25.472C1174.52 26.156 1173.99 26.678 1173.32 27.038C1172.65 27.398 1171.89 27.578 1171.05 27.578ZM1171.18 26.444C1171.87 26.444 1172.49 26.297 1173.03 26.003C1173.57 25.709 1174 25.301 1174.31 24.779C1174.62 24.257 1174.78 23.654 1174.78 22.97C1174.78 22.286 1174.62 21.686 1174.31 21.17C1174 20.654 1173.57 20.249 1173.03 19.955C1172.49 19.661 1171.87 19.514 1171.18 19.514C1170.49 19.514 1169.88 19.661 1169.33 19.955C1168.78 20.249 1168.36 20.654 1168.05 21.17C1167.75 21.686 1167.59 22.286 1167.59 22.97C1167.59 23.654 1167.75 24.257 1168.05 24.779C1168.36 25.301 1168.78 25.709 1169.33 26.003C1169.88 26.297 1170.49 26.444 1171.18 26.444Z" fill-rule="evenodd"/>
</g>
</g>
<g opacity="1">
<path d="M898.725 6.46561L1042.96 6.46561C1044.73 6.46561 1046.17 7.79119 1046.17 9.42639L1046.17 33.1126C1046.17 34.7478 1044.73 36.0734 1042.96 36.0734L898.725 36.0734C896.954 36.0734 895.519 34.7478 895.519 33.1126L895.519 9.42639C895.519 7.79119 896.954 6.46561 898.725 6.46561Z" fill="#efefef" fill-rule="evenodd" opacity="1" stroke="none"/>
<g fill="#000000" opacity="1" stroke="none">
<path clip-path="url(#TextBounds_2)" d="M941.225 27.938L941.225 16.49L936.797 16.49L936.797 15.338L946.985 15.338L946.985 16.49L942.557 16.49L942.557 27.938L941.225 27.938Z" fill-rule="evenodd"/>
<path clip-path="url(#TextBounds_2)" d="M952.853 28.028C951.869 28.028 951.005 27.821 950.261 27.407C949.517 26.993 948.935 26.423 948.515 25.697C948.095 24.971 947.885 24.14 947.885 23.204C947.885 22.268 948.086 21.44 948.488 20.72C948.89 20 949.442 19.433 950.144 19.019C950.846 18.605 951.635 18.398 952.511 18.398C953.399 18.398 954.188 18.599 954.878 19.001C955.568 19.403 956.111 19.967 956.507 20.693C956.903 21.419 957.101 22.256 957.101 23.204C957.101 23.264 957.098 23.327 957.092 23.393C957.086 23.459 957.083 23.528 957.083 23.6L948.857 23.6L948.857 22.646L956.399 22.646L955.895 23.024C955.895 22.34 955.748 21.731 955.454 21.197C955.16 20.663 954.761 20.246 954.257 19.946C953.753 19.646 953.171 19.496 952.511 19.496C951.863 19.496 951.281 19.646 950.765 19.946C950.249 20.246 949.847 20.666 949.559 21.206C949.271 21.746 949.127 22.364 949.127 23.06L949.127 23.258C949.127 23.978 949.286 24.611 949.604 25.157C949.922 25.703 950.366 26.129 950.936 26.435C951.506 26.741 952.157 26.894 952.889 26.894C953.465 26.894 954.002 26.792 954.5 26.588C954.998 26.384 955.427 26.072 955.787 25.652L956.507 26.48C956.087 26.984 955.562 27.368 954.932 27.632C954.302 27.896 953.609 28.028 952.853 28.028Z" fill-rule="evenodd"/>
<path clip-path="url(#TextBounds_2)" d="M962.249 28.028C961.469 28.028 960.731 27.917 960.035 27.695C959.339 27.473 958.793 27.194 958.397 26.858L958.973 25.85C959.357 26.138 959.849 26.387 960.449 26.597C961.049 26.807 961.679 26.912 962.339 26.912C963.239 26.912 963.887 26.771 964.283 26.489C964.679 26.207 964.877 25.832 964.877 25.364C964.877 25.016 964.766 24.743 964.544 24.545C964.322 24.347 964.031 24.197 963.671 24.095C963.311 23.993 962.909 23.906 962.465 23.834C962.021 23.762 961.58 23.678 961.142 23.582C960.704 23.486 960.305 23.345 959.945 23.159C959.585 22.973 959.294 22.718 959.072 22.394C958.85 22.07 958.739 21.638 958.739 21.098C958.739 20.582 958.883 20.12 959.171 19.712C959.459 19.304 959.882 18.983 960.44 18.749C960.998 18.515 961.679 18.398 962.483 18.398C963.095 18.398 963.707 18.479 964.319 18.641C964.931 18.803 965.435 19.016 965.831 19.28L965.273 20.306C964.853 20.018 964.403 19.811 963.923 19.685C963.443 19.559 962.963 19.496 962.483 19.496C961.631 19.496 961.004 19.643 960.602 19.937C960.2 20.231 959.999 20.606 959.999 21.062C959.999 21.422 960.11 21.704 960.332 21.908C960.554 22.112 960.848 22.271 961.214 22.385C961.58 22.499 961.982 22.592 962.42 22.664C962.858 22.736 963.296 22.823 963.734 22.925C964.172 23.027 964.574 23.165 964.94 23.339C965.306 23.513 965.6 23.759 965.822 24.077C966.044 24.395 966.155 24.812 966.155 25.328C966.155 25.88 966.002 26.357 965.696 26.759C965.39 27.161 964.946 27.473 964.364 27.695C963.782 27.917 963.077 28.028 962.249 28.028Z" fill-rule="evenodd"/>
<path clip-path="url(#TextBounds_2)" d="M971.483 28.028C970.595 28.028 969.911 27.788 969.431 27.308C968.951 26.828 968.711 26.15 968.711 25.274L968.711 16.4L969.989 16.4L969.989 25.202C969.989 25.754 970.13 26.18 970.412 26.48C970.694 26.78 971.099 26.93 971.627 26.93C972.191 26.93 972.659 26.768 973.031 26.444L973.481 27.362C973.229 27.59 972.926 27.758 972.572 27.866C972.218 27.974 971.855 28.028 971.483 28.028ZM967.019 19.55L967.019 18.488L972.869 18.488L972.869 19.55L967.019 19.55Z" fill-rule="evenodd"/>
<path clip-path="url(#TextBounds_2)" d="M975.803 27.938L975.803 18.488L977.081 18.488L977.081 27.938L975.803 27.938ZM976.451 16.4C976.187 16.4 975.965 16.31 975.785 16.13C975.605 15.95 975.515 15.734 975.515 15.482C975.515 15.23 975.605 15.017 975.785 14.843C975.965 14.669 976.187 14.582 976.451 14.582C976.715 14.582 976.937 14.666 977.117 14.834C977.297 15.002 977.387 15.212 977.387 15.464C977.387 15.728 977.3 15.95 977.126 16.13C976.952 16.31 976.727 16.4 976.451 16.4Z" fill-rule="evenodd"/>
<path clip-path="url(#TextBounds_2)" d="M985.469 18.398C986.237 18.398 986.912 18.545 987.494 18.839C988.076 19.133 988.532 19.58 988.862 20.18C989.192 20.78 989.357 21.536 989.357 22.448L989.357 27.938L988.079 27.938L988.079 22.574C988.079 21.578 987.83 20.825 987.332 20.315C986.834 19.805 986.135 19.55 985.235 19.55C984.563 19.55 983.978 19.685 983.48 19.955C982.982 20.225 982.598 20.615 982.328 21.125C982.058 21.635 981.923 22.25 981.923 22.97L981.923 27.938L980.645 27.938L980.645 18.488L981.869 18.488L981.869 21.08L981.671 20.594C981.971 19.91 982.451 19.373 983.111 18.983C983.771 18.593 984.557 18.398 985.469 18.398Z" fill-rule="evenodd"/>
<path clip-path="url(#TextBounds_2)" d="M996.845 31.52C995.981 31.52 995.153 31.394 994.361 31.142C993.569 30.89 992.927 30.53 992.435 30.062L993.083 29.09C993.527 29.486 994.076 29.801 994.73 30.035C995.384 30.269 996.077 30.386 996.809 30.386C998.009 30.386 998.891 30.107 999.455 29.549C1000.02 28.991 1000.3 28.124 1000.3 26.948L1000.3 24.59L1000.48 22.97L1000.36 21.35L1000.36 18.488L1001.58 18.488L1001.58 26.786C1001.58 28.418 1001.18 29.615 1000.38 30.377C999.584 31.139 998.405 31.52 996.845 31.52ZM996.611 27.578C995.711 27.578 994.901 27.383 994.181 26.993C993.461 26.603 992.894 26.06 992.48 25.364C992.066 24.668 991.859 23.87 991.859 22.97C991.859 22.07 992.066 21.275 992.48 20.585C992.894 19.895 993.461 19.358 994.181 18.974C994.901 18.59 995.711 18.398 996.611 18.398C997.451 18.398 998.207 18.572 998.879 18.92C999.551 19.268 1000.09 19.784 1000.48 20.468C1000.88 21.152 1001.08 21.986 1001.08 22.97C1001.08 23.954 1000.88 24.788 1000.48 25.472C1000.09 26.156 999.551 26.678 998.879 27.038C998.207 27.398 997.451 27.578 996.611 27.578ZM996.737 26.444C997.433 26.444 998.051 26.297 998.591 26.003C999.131 25.709 999.557 25.301 999.869 24.779C1000.18 24.257 1000.34 23.654 1000.34 22.97C1000.34 22.286 1000.18 21.686 999.869 21.17C999.557 20.654 999.131 20.249 998.591 19.955C998.051 19.661 997.433 19.514 996.737 19.514C996.053 19.514 995.438 19.661 994.892 19.955C994.346 20.249 993.92 20.654 993.614 21.17C993.308 21.686 993.155 22.286 993.155 22.97C993.155 23.654 993.308 24.257 993.614 24.779C993.92 25.301 994.346 25.709 994.892 26.003C995.438 26.297 996.053 26.444 996.737 26.444Z" fill-rule="evenodd"/>
</g>
</g>
</g>
<path d="M484.16 57.5183L1014.33 57.5183C1020.84 57.5183 1026.12 58.8439 1026.12 60.4791L1026.12 84.1654C1026.12 85.8006 1020.84 87.1261 1014.33 87.1261L484.16 87.1261C477.651 87.1261 472.374 85.8006 472.374 84.1654L472.374 60.4791C472.374 58.8439 477.651 57.5183 484.16 57.5183Z" fill="#efefef" fill-rule="evenodd" opacity="1" stroke="none"/>
<g fill="#000000" opacity="1" stroke="none">
<path clip-path="url(#TextBounds_3)" d="M487.102 78.9907L487.102 66.3907L492.232 66.3907C493.576 66.3907 494.755 66.6577 495.769 67.1917C496.783 67.7257 497.572 68.4667 498.136 69.4147C498.7 70.3627 498.982 71.4547 498.982 72.6907C498.982 73.9267 498.7 75.0187 498.136 75.9667C497.572 76.9147 496.783 77.6557 495.769 78.1897C494.755 78.7237 493.576 78.9907 492.232 78.9907L487.102 78.9907ZM488.434 77.8387L492.16 77.8387C493.276 77.8387 494.245 77.6197 495.067 77.1817C495.889 76.7437 496.528 76.1377 496.984 75.3637C497.44 74.5897 497.668 73.6987 497.668 72.6907C497.668 71.6707 497.44 70.7767 496.984 70.0087C496.528 69.2407 495.889 68.6377 495.067 68.1997C494.245 67.7617 493.276 67.5427 492.16 67.5427L488.434 67.5427L488.434 77.8387Z" fill-rule="evenodd"/>
<path clip-path="url(#TextBounds_3)" d="M505.714 79.0807C504.73 79.0807 503.866 78.8737 503.122 78.4597C502.378 78.0457 501.796 77.4757 501.376 76.7497C500.956 76.0237 500.746 75.1927 500.746 74.2567C500.746 73.3207 500.947 72.4927 501.349 71.7727C501.751 71.0527 502.303 70.4857 503.005 70.0717C503.707 69.6577 504.496 69.4507 505.372 69.4507C506.26 69.4507 507.049 69.6517 507.739 70.0537C508.429 70.4557 508.972 71.0197 509.368 71.7457C509.764 72.4717 509.962 73.3087 509.962 74.2567C509.962 74.3167 509.959 74.3797 509.953 74.4457C509.947 74.5117 509.944 74.5807 509.944 74.6527L501.718 74.6527L501.718 73.6987L509.26 73.6987L508.756 74.0767C508.756 73.3927 508.609 72.7837 508.315 72.2497C508.021 71.7157 507.622 71.2987 507.118 70.9987C506.614 70.6987 506.032 70.5487 505.372 70.5487C504.724 70.5487 504.142 70.6987 503.626 70.9987C503.11 71.2987 502.708 71.7187 502.42 72.2587C502.132 72.7987 501.988 73.4167 501.988 74.1127L501.988 74.3107C501.988 75.0307 502.147 75.6637 502.465 76.2097C502.783 76.7557 503.227 77.1817 503.797 77.4877C504.367 77.7937 505.018 77.9467 505.75 77.9467C506.326 77.9467 506.863 77.8447 507.361 77.6407C507.859 77.4367 508.288 77.1247 508.648 76.7047L509.368 77.5327C508.948 78.0367 508.423 78.4207 507.793 78.6847C507.163 78.9487 506.47 79.0807 505.714 79.0807Z" fill-rule="evenodd"/>
<path clip-path="url(#TextBounds_3)" d="M514.822 78.9907L510.628 69.5407L511.96 69.5407L515.812 78.3067L515.182 78.3067L519.088 69.5407L520.348 69.5407L516.136 78.9907L514.822 78.9907Z" fill-rule="evenodd"/>
<path clip-path="url(#TextBounds_3)" d="M525.892 79.0807C524.908 79.0807 524.044 78.8737 523.3 78.4597C522.556 78.0457 521.974 77.4757 521.554 76.7497C521.134 76.0237 520.924 75.1927 520.924 74.2567C520.924 73.3207 521.125 72.4927 521.527 71.7727C521.929 71.0527 522.481 70.4857 523.183 70.0717C523.885 69.6577 524.674 69.4507 525.55 69.4507C526.438 69.4507 527.227 69.6517 527.917 70.0537C528.607 70.4557 529.15 71.0197 529.546 71.7457C529.942 72.4717 530.14 73.3087 530.14 74.2567C530.14 74.3167 530.137 74.3797 530.131 74.4457C530.125 74.5117 530.122 74.5807 530.122 74.6527L521.896 74.6527L521.896 73.6987L529.438 73.6987L528.934 74.0767C528.934 73.3927 528.787 72.7837 528.493 72.2497C528.199 71.7157 527.8 71.2987 527.296 70.9987C526.792 70.6987 526.21 70.5487 525.55 70.5487C524.902 70.5487 524.32 70.6987 523.804 70.9987C523.288 71.2987 522.886 71.7187 522.598 72.2587C522.31 72.7987 522.166 73.4167 522.166 74.1127L522.166 74.3107C522.166 75.0307 522.325 75.6637 522.643 76.2097C522.961 76.7557 523.405 77.1817 523.975 77.4877C524.545 77.7937 525.196 77.9467 525.928 77.9467C526.504 77.9467 527.041 77.8447 527.539 77.6407C528.037 77.4367 528.466 77.1247 528.826 76.7047L529.546 77.5327C529.126 78.0367 528.601 78.4207 527.971 78.6847C527.341 78.9487 526.648 79.0807 525.892 79.0807Z" fill-rule="evenodd"/>
<path clip-path="url(#TextBounds_3)" d="M532.75 78.9907L532.75 65.6347L534.028 65.6347L534.028 78.9907L532.75 78.9907Z" fill-rule="evenodd"/>
<path clip-path="url(#TextBounds_3)" d="M541.444 79.0807C540.532 79.0807 539.713 78.8737 538.987 78.4597C538.261 78.0457 537.688 77.4757 537.268 76.7497C536.848 76.0237 536.638 75.1927 536.638 74.2567C536.638 73.3087 536.848 72.4747 537.268 71.7547C537.688 71.0347 538.258 70.4707 538.978 70.0627C539.698 69.6547 540.52 69.4507 541.444 69.4507C542.38 69.4507 543.211 69.6547 543.937 70.0627C544.663 70.4707 545.233 71.0347 545.647 71.7547C546.061 72.4747 546.268 73.3087 546.268 74.2567C546.268 75.1927 546.061 76.0237 545.647 76.7497C545.233 77.4757 544.66 78.0457 543.928 78.4597C543.196 78.8737 542.368 79.0807 541.444 79.0807ZM541.444 77.9467C542.128 77.9467 542.734 77.7937 543.262 77.4877C543.79 77.1817 544.207 76.7497 544.513 76.1917C544.819 75.6337 544.972 74.9887 544.972 74.2567C544.972 73.5127 544.819 72.8647 544.513 72.3127C544.207 71.7607 543.79 71.3317 543.262 71.0257C542.734 70.7197 542.134 70.5667 541.462 70.5667C540.79 70.5667 540.19 70.7197 539.662 71.0257C539.134 71.3317 538.714 71.7607 538.402 72.3127C538.09 72.8647 537.934 73.5127 537.934 74.2567C537.934 74.9887 538.09 75.6337 538.402 76.1917C538.714 76.7497 539.134 77.1817 539.662 77.4877C540.19 77.7937 540.784 77.9467 541.444 77.9467Z" fill-rule="evenodd"/>
<path clip-path="url(#TextBounds_3)" d="M553.756 79.0807C552.94 79.0807 552.202 78.8917 551.542 78.5137C550.882 78.1357 550.357 77.5897 549.967 76.8757C549.577 76.1617 549.382 75.2887 549.382 74.2567C549.382 73.2247 549.574 72.3517 549.958 71.6377C550.342 70.9237 550.864 70.3807 551.524 70.0087C552.184 69.6367 552.928 69.4507 553.756 69.4507C554.656 69.4507 555.463 69.6517 556.177 70.0537C556.891 70.4557 557.452 71.0197 557.86 71.7457C558.268 72.4717 558.472 73.3087 558.472 74.2567C558.472 75.2167 558.268 76.0567 557.86 76.7767C557.452 77.4967 556.891 78.0607 556.177 78.4687C555.463 78.8767 554.656 79.0807 553.756 79.0807ZM548.878 82.4827L548.878 69.5407L550.102 69.5407L550.102 72.3847L549.976 74.2747L550.156 76.1827L550.156 82.4827L548.878 82.4827ZM553.666 77.9467C554.338 77.9467 554.938 77.7937 555.466 77.4877C555.994 77.1817 556.414 76.7497 556.726 76.1917C557.038 75.6337 557.194 74.9887 557.194 74.2567C557.194 73.5247 557.038 72.8827 556.726 72.3307C556.414 71.7787 555.994 71.3467 555.466 71.0347C554.938 70.7227 554.338 70.5667 553.666 70.5667C552.994 70.5667 552.391 70.7227 551.857 71.0347C551.323 71.3467 550.903 71.7787 550.597 72.3307C550.291 72.8827 550.138 73.5247 550.138 74.2567C550.138 74.9887 550.291 75.6337 550.597 76.1917C550.903 76.7497 551.323 77.1817 551.857 77.4877C552.391 77.7937 552.994 77.9467 553.666 77.9467Z" fill-rule="evenodd"/>
<path clip-path="url(#TextBounds_3)" d="M572.89 69.4507C573.658 69.4507 574.327 69.5977 574.897 69.8917C575.467 70.1857 575.911 70.6327 576.229 71.2327C576.547 71.8327 576.706 72.5887 576.706 73.5007L576.706 78.9907L575.428 78.9907L575.428 73.6267C575.428 72.6307 575.191 71.8777 574.717 71.3677C574.243 70.8577 573.574 70.6027 572.71 70.6027C572.062 70.6027 571.501 70.7377 571.027 71.0077C570.553 71.2777 570.187 71.6677 569.929 72.1777C569.671 72.6877 569.542 73.3027 569.542 74.0227L569.542 78.9907L568.264 78.9907L568.264 73.6267C568.264 72.6307 568.024 71.8777 567.544 71.3677C567.064 70.8577 566.392 70.6027 565.528 70.6027C564.892 70.6027 564.334 70.7377 563.854 71.0077C563.374 71.2777 563.005 71.6677 562.747 72.1777C562.489 72.6877 562.36 73.3027 562.36 74.0227L562.36 78.9907L561.082 78.9907L561.082 69.5407L562.306 69.5407L562.306 72.0967L562.108 71.6467C562.396 70.9627 562.861 70.4257 563.503 70.0357C564.145 69.6457 564.904 69.4507 565.78 69.4507C566.704 69.4507 567.49 69.6817 568.138 70.1437C568.786 70.6057 569.206 71.2987 569.398 72.2227L568.894 72.0247C569.17 71.2567 569.659 70.6357 570.361 70.1617C571.063 69.6877 571.906 69.4507 572.89 69.4507Z" fill-rule="evenodd"/>
<path clip-path="url(#TextBounds_3)" d="M584.194 79.0807C583.21 79.0807 582.346 78.8737 581.602 78.4597C580.858 78.0457 580.276 77.4757 579.856 76.7497C579.436 76.0237 579.226 75.1927 579.226 74.2567C579.226 73.3207 579.427 72.4927 579.829 71.7727C580.231 71.0527 580.783 70.4857 581.485 70.0717C582.187 69.6577 582.976 69.4507 583.852 69.4507C584.74 69.4507 585.529 69.6517 586.219 70.0537C586.909 70.4557 587.452 71.0197 587.848 71.7457C588.244 72.4717 588.442 73.3087 588.442 74.2567C588.442 74.3167 588.439 74.3797 588.433 74.4457C588.427 74.5117 588.424 74.5807 588.424 74.6527L580.198 74.6527L580.198 73.6987L587.74 73.6987L587.236 74.0767C587.236 73.3927 587.089 72.7837 586.795 72.2497C586.501 71.7157 586.102 71.2987 585.598 70.9987C585.094 70.6987 584.512 70.5487 583.852 70.5487C583.204 70.5487 582.622 70.6987 582.106 70.9987C581.59 71.2987 581.188 71.7187 580.9 72.2587C580.612 72.7987 580.468 73.4167 580.468 74.1127L580.468 74.3107C580.468 75.0307 580.627 75.6637 580.945 76.2097C581.263 76.7557 581.707 77.1817 582.277 77.4877C582.847 77.7937 583.498 77.9467 584.23 77.9467C584.806 77.9467 585.343 77.8447 585.841 77.6407C586.339 77.4367 586.768 77.1247 587.128 76.7047L587.848 77.5327C587.428 78.0367 586.903 78.4207 586.273 78.6847C585.643 78.9487 584.95 79.0807 584.194 79.0807Z" fill-rule="evenodd"/>
<path clip-path="url(#TextBounds_3)" d="M595.876 69.4507C596.644 69.4507 597.319 69.5977 597.901 69.8917C598.483 70.1857 598.939 70.6327 599.269 71.2327C599.599 71.8327 599.764 72.5887 599.764 73.5007L599.764 78.9907L598.486 78.9907L598.486 73.6267C598.486 72.6307 598.237 71.8777 597.739 71.3677C597.241 70.8577 596.542 70.6027 595.642 70.6027C594.97 70.6027 594.385 70.7377 593.887 71.0077C593.389 71.2777 593.005 71.6677 592.735 72.1777C592.465 72.6877 592.33 73.3027 592.33 74.0227L592.33 78.9907L591.052 78.9907L591.052 69.5407L592.276 69.5407L592.276 72.1327L592.078 71.6467C592.378 70.9627 592.858 70.4257 593.518 70.0357C594.178 69.6457 594.964 69.4507 595.876 69.4507Z" fill-rule="evenodd"/>
<path clip-path="url(#TextBounds_3)" d="M606.208 79.0807C605.32 79.0807 604.636 78.8407 604.156 78.3607C603.676 77.8807 603.436 77.2027 603.436 76.3267L603.436 67.4527L604.714 67.4527L604.714 76.2547C604.714 76.8067 604.855 77.2327 605.137 77.5327C605.419 77.8327 605.824 77.9827 606.352 77.9827C606.916 77.9827 607.384 77.8207 607.756 77.4967L608.206 78.4147C607.954 78.6427 607.651 78.8107 607.297 78.9187C606.943 79.0267 606.58 79.0807 606.208 79.0807ZM601.744 70.6027L601.744 69.5407L607.594 69.5407L607.594 70.6027L601.744 70.6027Z" fill-rule="evenodd"/>
</g>
<path d="M82.7892 57.4296L245.863 57.4296C247.865 57.4296 249.488 58.7631 249.488 60.4081L249.488 84.2363C249.488 85.8813 247.865 87.2149 245.863 87.2149L82.7892 87.2149C80.7871 87.2149 79.1641 85.8813 79.1641 84.2363L79.1641 60.4081C79.1641 58.7631 80.7871 57.4296 82.7892 57.4296Z" fill="#efefef" fill-rule="evenodd" opacity="1" stroke="none"/>
<g fill="#000000" opacity="1" stroke="none">
<path clip-path="url(#TextBounds_4)" d="M111.586 78.2752L107.338 65.6752L108.706 65.6752L112.684 77.5372L112 77.5372L116.104 65.6752L117.328 65.6752L121.378 77.5372L120.73 77.5372L124.744 65.6752L126.022 65.6752L121.774 78.2752L120.37 78.2752L116.5 67.0252L116.86 67.0252L112.972 78.2752L111.586 78.2752Z" fill-rule="evenodd"/>
<path clip-path="url(#TextBounds_4)" d="M128.452 78.2752L128.452 68.8252L129.73 68.8252L129.73 78.2752L128.452 78.2752ZM129.1 66.7372C128.836 66.7372 128.614 66.6472 128.434 66.4672C128.254 66.2872 128.164 66.0712 128.164 65.8192C128.164 65.5672 128.254 65.3542 128.434 65.1802C128.614 65.0062 128.836 64.9192 129.1 64.9192C129.364 64.9192 129.586 65.0032 129.766 65.1712C129.946 65.3392 130.036 65.5492 130.036 65.8012C130.036 66.0652 129.949 66.2872 129.775 66.4672C129.601 66.6472 129.376 66.7372 129.1 66.7372Z" fill-rule="evenodd"/>
<path clip-path="url(#TextBounds_4)" d="M133.294 78.2752L133.294 68.8252L134.518 68.8252L134.518 71.3992L134.392 70.9492C134.656 70.2292 135.1 69.6802 135.724 69.3022C136.348 68.9242 137.122 68.7352 138.046 68.7352L138.046 69.9772C137.998 69.9772 137.95 69.9742 137.902 69.9682C137.854 69.9622 137.806 69.9592 137.758 69.9592C136.762 69.9592 135.982 70.2622 135.418 70.8682C134.854 71.4742 134.572 72.3352 134.572 73.4512L134.572 78.2752L133.294 78.2752Z" fill-rule="evenodd"/>
<path clip-path="url(#TextBounds_4)" d="M144.526 78.3652C143.542 78.3652 142.678 78.1582 141.934 77.7442C141.19 77.3302 140.608 76.7602 140.188 76.0342C139.768 75.3082 139.558 74.4772 139.558 73.5412C139.558 72.6052 139.759 71.7772 140.161 71.0572C140.563 70.3372 141.115 69.7702 141.817 69.3562C142.519 68.9422 143.308 68.7352 144.184 68.7352C145.072 68.7352 145.861 68.9362 146.551 69.3382C147.241 69.7402 147.784 70.3042 148.18 71.0302C148.576 71.7562 148.774 72.5932 148.774 73.5412C148.774 73.6012 148.771 73.6642 148.765 73.7302C148.759 73.7962 148.756 73.8652 148.756 73.9372L140.53 73.9372L140.53 72.9832L148.072 72.9832L147.568 73.3612C147.568 72.6772 147.421 72.0682 147.127 71.5342C146.833 71.0002 146.434 70.5832 145.93 70.2832C145.426 69.9832 144.844 69.8332 144.184 69.8332C143.536 69.8332 142.954 69.9832 142.438 70.2832C141.922 70.5832 141.52 71.0032 141.232 71.5432C140.944 72.0832 140.8 72.7012 140.8 73.3972L140.8 73.5952C140.8 74.3152 140.959 74.9482 141.277 75.4942C141.595 76.0402 142.039 76.4662 142.609 76.7722C143.179 77.0782 143.83 77.2312 144.562 77.2312C145.138 77.2312 145.675 77.1292 146.173 76.9252C146.671 76.7212 147.1 76.4092 147.46 75.9892L148.18 76.8172C147.76 77.3212 147.235 77.7052 146.605 77.9692C145.975 78.2332 145.282 78.3652 144.526 78.3652Z" fill-rule="evenodd"/>
<path clip-path="url(#TextBounds_4)" d="M151.6 78.2752L151.6 67.6372C151.6 66.7972 151.846 66.1192 152.338 65.6032C152.83 65.0872 153.538 64.8292 154.462 64.8292C154.822 64.8292 155.17 64.8772 155.506 64.9732C155.842 65.0692 156.124 65.2192 156.352 65.4232L155.92 66.3772C155.74 66.2212 155.53 66.1042 155.29 66.0262C155.05 65.9482 154.792 65.9092 154.516 65.9092C153.976 65.9092 153.562 66.0592 153.274 66.3592C152.986 66.6592 152.842 67.1032 152.842 67.6912L152.842 69.1312L152.878 69.7252L152.878 78.2752L151.6 78.2752ZM149.908 69.8872L149.908 68.8252L155.758 68.8252L155.758 69.8872L149.908 69.8872Z" fill-rule="evenodd"/>
<path clip-path="url(#TextBounds_4)" d="M157.486 78.2752L157.486 68.8252L158.71 68.8252L158.71 71.3992L158.584 70.9492C158.848 70.2292 159.292 69.6802 159.916 69.3022C160.54 68.9242 161.314 68.7352 162.238 68.7352L162.238 69.9772C162.19 69.9772 162.142 69.9742 162.094 69.9682C162.046 69.9622 161.998 69.9592 161.95 69.9592C160.954 69.9592 160.174 70.2622 159.61 70.8682C159.046 71.4742 158.764 72.3352 158.764 73.4512L158.764 78.2752L157.486 78.2752Z" fill-rule="evenodd"/>
<path clip-path="url(#TextBounds_4)" d="M170.626 78.2752L170.626 76.1872L170.572 75.8452L170.572 72.3532C170.572 71.5492 170.347 70.9312 169.897 70.4992C169.447 70.0672 168.778 69.8512 167.89 69.8512C167.278 69.8512 166.696 69.9532 166.144 70.1572C165.592 70.3612 165.124 70.6312 164.74 70.9672L164.164 70.0132C164.644 69.6052 165.22 69.2902 165.892 69.0682C166.564 68.8462 167.272 68.7352 168.016 68.7352C169.24 68.7352 170.185 69.0382 170.851 69.6442C171.517 70.2502 171.85 71.1712 171.85 72.4072L171.85 78.2752L170.626 78.2752ZM167.368 78.3652C166.66 78.3652 166.045 78.2482 165.523 78.0142C165.001 77.7802 164.602 77.4562 164.326 77.0422C164.05 76.6282 163.912 76.1512 163.912 75.6112C163.912 75.1192 164.029 74.6722 164.263 74.2702C164.497 73.8682 164.881 73.5442 165.415 73.2982C165.949 73.0522 166.666 72.9292 167.566 72.9292L170.824 72.9292L170.824 73.8832L167.602 73.8832C166.69 73.8832 166.057 74.0452 165.703 74.3692C165.349 74.6932 165.172 75.0952 165.172 75.5752C165.172 76.1152 165.382 76.5472 165.802 76.8712C166.222 77.1952 166.81 77.3572 167.566 77.3572C168.286 77.3572 168.907 77.1922 169.429 76.8622C169.951 76.5322 170.332 76.0552 170.572 75.4312L170.86 76.3132C170.62 76.9372 170.203 77.4352 169.609 77.8072C169.015 78.1792 168.268 78.3652 167.368 78.3652Z" fill-rule="evenodd"/>
<path clip-path="url(#TextBounds_4)" d="M187.132 68.7352C187.9 68.7352 188.569 68.8822 189.139 69.1762C189.709 69.4702 190.153 69.9172 190.471 70.5172C190.789 71.1172 190.948 71.8732 190.948 72.7852L190.948 78.2752L189.67 78.2752L189.67 72.9112C189.67 71.9152 189.433 71.1622 188.959 70.6522C188.485 70.1422 187.816 69.8872 186.952 69.8872C186.304 69.8872 185.743 70.0222 185.269 70.2922C184.795 70.5622 184.429 70.9522 184.171 71.4622C183.913 71.9722 183.784 72.5872 183.784 73.3072L183.784 78.2752L182.506 78.2752L182.506 72.9112C182.506 71.9152 182.266 71.1622 181.786 70.6522C181.306 70.1422 180.634 69.8872 179.77 69.8872C179.134 69.8872 178.576 70.0222 178.096 70.2922C177.616 70.5622 177.247 70.9522 176.989 71.4622C176.731 71.9722 176.602 72.5872 176.602 73.3072L176.602 78.2752L175.324 78.2752L175.324 68.8252L176.548 68.8252L176.548 71.3812L176.35 70.9312C176.638 70.2472 177.103 69.7102 177.745 69.3202C178.387 68.9302 179.146 68.7352 180.022 68.7352C180.946 68.7352 181.732 68.9662 182.38 69.4282C183.028 69.8902 183.448 70.5832 183.64 71.5072L183.136 71.3092C183.412 70.5412 183.901 69.9202 184.603 69.4462C185.305 68.9722 186.148 68.7352 187.132 68.7352Z" fill-rule="evenodd"/>
<path clip-path="url(#TextBounds_4)" d="M194.422 78.2752L194.422 68.8252L195.7 68.8252L195.7 78.2752L194.422 78.2752ZM195.07 66.7372C194.806 66.7372 194.584 66.6472 194.404 66.4672C194.224 66.2872 194.134 66.0712 194.134 65.8192C194.134 65.5672 194.224 65.3542 194.404 65.1802C194.584 65.0062 194.806 64.9192 195.07 64.9192C195.334 64.9192 195.556 65.0032 195.736 65.1712C195.916 65.3392 196.006 65.5492 196.006 65.8012C196.006 66.0652 195.919 66.2872 195.745 66.4672C195.571 66.6472 195.346 66.7372 195.07 66.7372Z" fill-rule="evenodd"/>
<path clip-path="url(#TextBounds_4)" d="M204.088 68.7352C204.856 68.7352 205.531 68.8822 206.113 69.1762C206.695 69.4702 207.151 69.9172 207.481 70.5172C207.811 71.1172 207.976 71.8732 207.976 72.7852L207.976 78.2752L206.698 78.2752L206.698 72.9112C206.698 71.9152 206.449 71.1622 205.951 70.6522C205.453 70.1422 204.754 69.8872 203.854 69.8872C203.182 69.8872 202.597 70.0222 202.099 70.2922C201.601 70.5622 201.217 70.9522 200.947 71.4622C200.677 71.9722 200.542 72.5872 200.542 73.3072L200.542 78.2752L199.264 78.2752L199.264 68.8252L200.488 68.8252L200.488 71.4172L200.29 70.9312C200.59 70.2472 201.07 69.7102 201.73 69.3202C202.39 68.9302 203.176 68.7352 204.088 68.7352Z" fill-rule="evenodd"/>
<path clip-path="url(#TextBounds_4)" d="M215.464 81.8572C214.6 81.8572 213.772 81.7312 212.98 81.4792C212.188 81.2272 211.546 80.8672 211.054 80.3992L211.702 79.4272C212.146 79.8232 212.695 80.1382 213.349 80.3722C214.003 80.6062 214.696 80.7232 215.428 80.7232C216.628 80.7232 217.51 80.4442 218.074 79.8862C218.638 79.3282 218.92 78.4612 218.92 77.2852L218.92 74.9272L219.1 73.3072L218.974 71.6872L218.974 68.8252L220.198 68.8252L220.198 77.1232C220.198 78.7552 219.799 79.9522 219.001 80.7142C218.203 81.4762 217.024 81.8572 215.464 81.8572ZM215.23 77.9152C214.33 77.9152 213.52 77.7202 212.8 77.3302C212.08 76.9402 211.513 76.3972 211.099 75.7012C210.685 75.0052 210.478 74.2072 210.478 73.3072C210.478 72.4072 210.685 71.6122 211.099 70.9222C211.513 70.2322 212.08 69.6952 212.8 69.3112C213.52 68.9272 214.33 68.7352 215.23 68.7352C216.07 68.7352 216.826 68.9092 217.498 69.2572C218.17 69.6052 218.704 70.1212 219.1 70.8052C219.496 71.4892 219.694 72.3232 219.694 73.3072C219.694 74.2912 219.496 75.1252 219.1 75.8092C218.704 76.4932 218.17 77.0152 217.498 77.3752C216.826 77.7352 216.07 77.9152 215.23 77.9152ZM215.356 76.7812C216.052 76.7812 216.67 76.6342 217.21 76.3402C217.75 76.0462 218.176 75.6382 218.488 75.1162C218.8 74.5942 218.956 73.9912 218.956 73.3072C218.956 72.6232 218.8 72.0232 218.488 71.5072C218.176 70.9912 217.75 70.5862 217.21 70.2922C216.67 69.9982 216.052 69.8512 215.356 69.8512C214.672 69.8512 214.057 69.9982 213.511 70.2922C212.965 70.5862 212.539 70.9912 212.233 71.5072C211.927 72.0232 211.774 72.6232 211.774 73.3072C211.774 73.9912 211.927 74.5942 212.233 75.1162C212.539 75.6382 212.965 76.0462 213.511 76.3402C214.057 76.6342 214.672 76.7812 215.356 76.7812Z" fill-rule="evenodd"/>
</g>
<g opacity="1">
<path d="M182.544 6.46561L572.676 6.46561C577.465 6.46561 581.348 7.79119 581.348 9.42639L581.348 33.1126C581.348 34.7478 577.465 36.0734 572.676 36.0734L182.544 36.0734C177.754 36.0734 173.872 34.7478 173.872 33.1126L173.872 9.42639C173.872 7.79119 177.754 6.46561 182.544 6.46561Z" fill="#efefef" fill-rule="evenodd" opacity="1" stroke="none"/>
<g fill="#000000" opacity="1" stroke="none">
<path clip-path="url(#TextBounds_5)" d="M203.846 27.938L203.846 15.338L208.976 15.338C210.32 15.338 211.499 15.605 212.513 16.139C213.527 16.673 214.316 17.414 214.88 18.362C215.444 19.31 215.726 20.402 215.726 21.638C215.726 22.874 215.444 23.966 214.88 24.914C214.316 25.862 213.527 26.603 212.513 27.137C211.499 27.671 210.32 27.938 208.976 27.938L203.846 27.938ZM205.178 26.786L208.904 26.786C210.02 26.786 210.989 26.567 211.811 26.129C212.633 25.691 213.272 25.085 213.728 24.311C214.184 23.537 214.412 22.646 214.412 21.638C214.412 20.618 214.184 19.724 213.728 18.956C213.272 18.188 212.633 17.585 211.811 17.147C210.989 16.709 210.02 16.49 208.904 16.49L205.178 16.49L205.178 26.786Z" fill-rule="evenodd"/>
<path clip-path="url(#TextBounds_5)" d="M222.458 28.028C221.474 28.028 220.61 27.821 219.866 27.407C219.122 26.993 218.54 26.423 218.12 25.697C217.7 24.971 217.49 24.14 217.49 23.204C217.49 22.268 217.691 21.44 218.093 20.72C218.495 20 219.047 19.433 219.749 19.019C220.451 18.605 221.24 18.398 222.116 18.398C223.004 18.398 223.793 18.599 224.483 19.001C225.173 19.403 225.716 19.967 226.112 20.693C226.508 21.419 226.706 22.256 226.706 23.204C226.706 23.264 226.703 23.327 226.697 23.393C226.691 23.459 226.688 23.528 226.688 23.6L218.462 23.6L218.462 22.646L226.004 22.646L225.5 23.024C225.5 22.34 225.353 21.731 225.059 21.197C224.765 20.663 224.366 20.246 223.862 19.946C223.358 19.646 222.776 19.496 222.116 19.496C221.468 19.496 220.886 19.646 220.37 19.946C219.854 20.246 219.452 20.666 219.164 21.206C218.876 21.746 218.732 22.364 218.732 23.06L218.732 23.258C218.732 23.978 218.891 24.611 219.209 25.157C219.527 25.703 219.971 26.129 220.541 26.435C221.111 26.741 221.762 26.894 222.494 26.894C223.07 26.894 223.607 26.792 224.105 26.588C224.603 26.384 225.032 26.072 225.392 25.652L226.112 26.48C225.692 26.984 225.167 27.368 224.537 27.632C223.907 27.896 223.214 28.028 222.458 28.028Z" fill-rule="evenodd"/>
<path clip-path="url(#TextBounds_5)" d="M231.854 28.028C231.074 28.028 230.336 27.917 229.64 27.695C228.944 27.473 228.398 27.194 228.002 26.858L228.578 25.85C228.962 26.138 229.454 26.387 230.054 26.597C230.654 26.807 231.284 26.912 231.944 26.912C232.844 26.912 233.492 26.771 233.888 26.489C234.284 26.207 234.482 25.832 234.482 25.364C234.482 25.016 234.371 24.743 234.149 24.545C233.927 24.347 233.636 24.197 233.276 24.095C232.916 23.993 232.514 23.906 232.07 23.834C231.626 23.762 231.185 23.678 230.747 23.582C230.309 23.486 229.91 23.345 229.55 23.159C229.19 22.973 228.899 22.718 228.677 22.394C228.455 22.07 228.344 21.638 228.344 21.098C228.344 20.582 228.488 20.12 228.776 19.712C229.064 19.304 229.487 18.983 230.045 18.749C230.603 18.515 231.284 18.398 232.088 18.398C232.7 18.398 233.312 18.479 233.924 18.641C234.536 18.803 235.04 19.016 235.436 19.28L234.878 20.306C234.458 20.018 234.008 19.811 233.528 19.685C233.048 19.559 232.568 19.496 232.088 19.496C231.236 19.496 230.609 19.643 230.207 19.937C229.805 20.231 229.604 20.606 229.604 21.062C229.604 21.422 229.715 21.704 229.937 21.908C230.159 22.112 230.453 22.271 230.819 22.385C231.185 22.499 231.587 22.592 232.025 22.664C232.463 22.736 232.901 22.823 233.339 22.925C233.777 23.027 234.179 23.165 234.545 23.339C234.911 23.513 235.205 23.759 235.427 24.077C235.649 24.395 235.76 24.812 235.76 25.328C235.76 25.88 235.607 26.357 235.301 26.759C234.995 27.161 234.551 27.473 233.969 27.695C233.387 27.917 232.682 28.028 231.854 28.028Z" fill-rule="evenodd"/>
<path clip-path="url(#TextBounds_5)" d="M238.1 27.938L238.1 18.488L239.378 18.488L239.378 27.938L238.1 27.938ZM238.748 16.4C238.484 16.4 238.262 16.31 238.082 16.13C237.902 15.95 237.812 15.734 237.812 15.482C237.812 15.23 237.902 15.017 238.082 14.843C238.262 14.669 238.484 14.582 238.748 14.582C239.012 14.582 239.234 14.666 239.414 14.834C239.594 15.002 239.684 15.212 239.684 15.464C239.684 15.728 239.597 15.95 239.423 16.13C239.249 16.31 239.024 16.4 238.748 16.4Z" fill-rule="evenodd"/>
<path clip-path="url(#TextBounds_5)" d="M246.974 31.52C246.11 31.52 245.282 31.394 244.49 31.142C243.698 30.89 243.056 30.53 242.564 30.062L243.212 29.09C243.656 29.486 244.205 29.801 244.859 30.035C245.513 30.269 246.206 30.386 246.938 30.386C248.138 30.386 249.02 30.107 249.584 29.549C250.148 28.991 250.43 28.124 250.43 26.948L250.43 24.59L250.61 22.97L250.484 21.35L250.484 18.488L251.708 18.488L251.708 26.786C251.708 28.418 251.309 29.615 250.511 30.377C249.713 31.139 248.534 31.52 246.974 31.52ZM246.74 27.578C245.84 27.578 245.03 27.383 244.31 26.993C243.59 26.603 243.023 26.06 242.609 25.364C242.195 24.668 241.988 23.87 241.988 22.97C241.988 22.07 242.195 21.275 242.609 20.585C243.023 19.895 243.59 19.358 244.31 18.974C245.03 18.59 245.84 18.398 246.74 18.398C247.58 18.398 248.336 18.572 249.008 18.92C249.68 19.268 250.214 19.784 250.61 20.468C251.006 21.152 251.204 21.986 251.204 22.97C251.204 23.954 251.006 24.788 250.61 25.472C250.214 26.156 249.68 26.678 249.008 27.038C248.336 27.398 247.58 27.578 246.74 27.578ZM246.866 26.444C247.562 26.444 248.18 26.297 248.72 26.003C249.26 25.709 249.686 25.301 249.998 24.779C250.31 24.257 250.466 23.654 250.466 22.97C250.466 22.286 250.31 21.686 249.998 21.17C249.686 20.654 249.26 20.249 248.72 19.955C248.18 19.661 247.562 19.514 246.866 19.514C246.182 19.514 245.567 19.661 245.021 19.955C244.475 20.249 244.049 20.654 243.743 21.17C243.437 21.686 243.284 22.286 243.284 22.97C243.284 23.654 243.437 24.257 243.743 24.779C244.049 25.301 244.475 25.709 245.021 26.003C245.567 26.297 246.182 26.444 246.866 26.444Z" fill-rule="evenodd"/>
<path clip-path="url(#TextBounds_5)" d="M260.096 18.398C260.864 18.398 261.539 18.545 262.121 18.839C262.703 19.133 263.159 19.58 263.489 20.18C263.819 20.78 263.984 21.536 263.984 22.448L263.984 27.938L262.706 27.938L262.706 22.574C262.706 21.578 262.457 20.825 261.959 20.315C261.461 19.805 260.762 19.55 259.862 19.55C259.19 19.55 258.605 19.685 258.107 19.955C257.609 20.225 257.225 20.615 256.955 21.125C256.685 21.635 256.55 22.25 256.55 22.97L256.55 27.938L255.272 27.938L255.272 18.488L256.496 18.488L256.496 21.08L256.298 20.594C256.598 19.91 257.078 19.373 257.738 18.983C258.398 18.593 259.184 18.398 260.096 18.398Z" fill-rule="evenodd"/>
<path clip-path="url(#TextBounds_5)" d="M267.44 27.938L267.44 18.488L268.718 18.488L268.718 27.938L267.44 27.938ZM268.088 16.4C267.824 16.4 267.602 16.31 267.422 16.13C267.242 15.95 267.152 15.734 267.152 15.482C267.152 15.23 267.242 15.017 267.422 14.843C267.602 14.669 267.824 14.582 268.088 14.582C268.352 14.582 268.574 14.666 268.754 14.834C268.934 15.002 269.024 15.212 269.024 15.464C269.024 15.728 268.937 15.95 268.763 16.13C268.589 16.31 268.364 16.4 268.088 16.4Z" fill-rule="evenodd"/>
<path clip-path="url(#TextBounds_5)" d="M277.106 18.398C277.874 18.398 278.549 18.545 279.131 18.839C279.713 19.133 280.169 19.58 280.499 20.18C280.829 20.78 280.994 21.536 280.994 22.448L280.994 27.938L279.716 27.938L279.716 22.574C279.716 21.578 279.467 20.825 278.969 20.315C278.471 19.805 277.772 19.55 276.872 19.55C276.2 19.55 275.615 19.685 275.117 19.955C274.619 20.225 274.235 20.615 273.965 21.125C273.695 21.635 273.56 22.25 273.56 22.97L273.56 27.938L272.282 27.938L272.282 18.488L273.506 18.488L273.506 21.08L273.308 20.594C273.608 19.91 274.088 19.373 274.748 18.983C275.408 18.593 276.194 18.398 277.106 18.398Z" fill-rule="evenodd"/>
<path clip-path="url(#TextBounds_5)" d="M288.482 31.52C287.618 31.52 286.79 31.394 285.998 31.142C285.206 30.89 284.564 30.53 284.072 30.062L284.72 29.09C285.164 29.486 285.713 29.801 286.367 30.035C287.021 30.269 287.714 30.386 288.446 30.386C289.646 30.386 290.528 30.107 291.092 29.549C291.656 28.991 291.938 28.124 291.938 26.948L291.938 24.59L292.118 22.97L291.992 21.35L291.992 18.488L293.216 18.488L293.216 26.786C293.216 28.418 292.817 29.615 292.019 30.377C291.221 31.139 290.042 31.52 288.482 31.52ZM288.248 27.578C287.348 27.578 286.538 27.383 285.818 26.993C285.098 26.603 284.531 26.06 284.117 25.364C283.703 24.668 283.496 23.87 283.496 22.97C283.496 22.07 283.703 21.275 284.117 20.585C284.531 19.895 285.098 19.358 285.818 18.974C286.538 18.59 287.348 18.398 288.248 18.398C289.088 18.398 289.844 18.572 290.516 18.92C291.188 19.268 291.722 19.784 292.118 20.468C292.514 21.152 292.712 21.986 292.712 22.97C292.712 23.954 292.514 24.788 292.118 25.472C291.722 26.156 291.188 26.678 290.516 27.038C289.844 27.398 289.088 27.578 288.248 27.578ZM288.374 26.444C289.07 26.444 289.688 26.297 290.228 26.003C290.768 25.709 291.194 25.301 291.506 24.779C291.818 24.257 291.974 23.654 291.974 22.97C291.974 22.286 291.818 21.686 291.506 21.17C291.194 20.654 290.768 20.249 290.228 19.955C289.688 19.661 289.07 19.514 288.374 19.514C287.69 19.514 287.075 19.661 286.529 19.955C285.983 20.249 285.557 20.654 285.251 21.17C284.945 21.686 284.792 22.286 284.792 22.97C284.792 23.654 284.945 24.257 285.251 24.779C285.557 25.301 285.983 25.709 286.529 26.003C287.075 26.297 287.69 26.444 288.374 26.444Z" fill-rule="evenodd"/>
</g>
<path d="M8.05786 6.46561L152.294 6.46561C154.065 6.46561 155.5 7.79119 155.5 9.42639L155.5 33.1126C155.5 34.7478 154.065 36.0734 152.294 36.0734L8.05786 36.0734C6.28704 36.0734 4.85151 34.7478 4.85151 33.1126L4.85151 9.42639C4.85151 7.79119 6.28704 6.46561 8.05786 6.46561Z" fill="#efefef" fill-rule="evenodd" opacity="1" stroke="none"/>
<g fill="#000000" opacity="1" stroke="none">
<path clip-path="url(#TextBounds_6)" d="M39.9108 27.938L39.9108 15.338L44.6268 15.338C45.6948 15.338 46.6128 15.509 47.3808 15.851C48.1488 16.193 48.7398 16.685 49.1538 17.327C49.5678 17.969 49.7748 18.746 49.7748 19.658C49.7748 20.546 49.5678 21.311 49.1538 21.953C48.7398 22.595 48.1488 23.087 47.3808 23.429C46.6128 23.771 45.6948 23.942 44.6268 23.942L40.6488 23.942L41.2428 23.33L41.2428 27.938L39.9108 27.938ZM48.5148 27.938L45.2748 23.366L46.7148 23.366L49.9728 27.938L48.5148 27.938ZM41.2428 23.438L40.6488 22.808L44.5908 22.808C45.8508 22.808 46.8078 22.532 47.4618 21.98C48.1158 21.428 48.4428 20.654 48.4428 19.658C48.4428 18.65 48.1158 17.87 47.4618 17.318C46.8078 16.766 45.8508 16.49 44.5908 16.49L40.6488 16.49L41.2428 15.86L41.2428 23.438Z" fill-rule="evenodd"/>
<path clip-path="url(#TextBounds_6)" d="M56.6688 28.028C55.6848 28.028 54.8208 27.821 54.0768 27.407C53.3328 26.993 52.7508 26.423 52.3308 25.697C51.9108 24.971 51.7008 24.14 51.7008 23.204C51.7008 22.268 51.9018 21.44 52.3038 20.72C52.7058 20 53.2578 19.433 53.9598 19.019C54.6618 18.605 55.4508 18.398 56.3268 18.398C57.2148 18.398 58.0038 18.599 58.6938 19.001C59.3838 19.403 59.9268 19.967 60.3228 20.693C60.7188 21.419 60.9168 22.256 60.9168 23.204C60.9168 23.264 60.9138 23.327 60.9078 23.393C60.9018 23.459 60.8988 23.528 60.8988 23.6L52.6728 23.6L52.6728 22.646L60.2148 22.646L59.7108 23.024C59.7108 22.34 59.5638 21.731 59.2698 21.197C58.9758 20.663 58.5768 20.246 58.0728 19.946C57.5688 19.646 56.9868 19.496 56.3268 19.496C55.6788 19.496 55.0968 19.646 54.5808 19.946C54.0648 20.246 53.6628 20.666 53.3748 21.206C53.0868 21.746 52.9428 22.364 52.9428 23.06L52.9428 23.258C52.9428 23.978 53.1018 24.611 53.4198 25.157C53.7378 25.703 54.1818 26.129 54.7518 26.435C55.3218 26.741 55.9728 26.894 56.7048 26.894C57.2808 26.894 57.8178 26.792 58.3158 26.588C58.8138 26.384 59.2428 26.072 59.6028 25.652L60.3228 26.48C59.9028 26.984 59.3778 27.368 58.7478 27.632C58.1178 27.896 57.4248 28.028 56.6688 28.028Z" fill-rule="evenodd"/>
<path clip-path="url(#TextBounds_6)" d="M66.0648 28.028C65.2848 28.028 64.5468 27.917 63.8508 27.695C63.1548 27.473 62.6088 27.194 62.2128 26.858L62.7888 25.85C63.1728 26.138 63.6648 26.387 64.2648 26.597C64.8648 26.807 65.4948 26.912 66.1548 26.912C67.0548 26.912 67.7028 26.771 68.0988 26.489C68.4948 26.207 68.6928 25.832 68.6928 25.364C68.6928 25.016 68.5818 24.743 68.3598 24.545C68.1378 24.347 67.8468 24.197 67.4868 24.095C67.1268 23.993 66.7248 23.906 66.2808 23.834C65.8368 23.762 65.3958 23.678 64.9578 23.582C64.5198 23.486 64.1208 23.345 63.7608 23.159C63.4008 22.973 63.1098 22.718 62.8878 22.394C62.6658 22.07 62.5548 21.638 62.5548 21.098C62.5548 20.582 62.6988 20.12 62.9868 19.712C63.2748 19.304 63.6978 18.983 64.2558 18.749C64.8138 18.515 65.4948 18.398 66.2988 18.398C66.9108 18.398 67.5228 18.479 68.1348 18.641C68.7468 18.803 69.2508 19.016 69.6468 19.28L69.0888 20.306C68.6688 20.018 68.2188 19.811 67.7388 19.685C67.2588 19.559 66.7788 19.496 66.2988 19.496C65.4468 19.496 64.8198 19.643 64.4178 19.937C64.0158 20.231 63.8148 20.606 63.8148 21.062C63.8148 21.422 63.9258 21.704 64.1478 21.908C64.3698 22.112 64.6638 22.271 65.0298 22.385C65.3958 22.499 65.7978 22.592 66.2358 22.664C66.6738 22.736 67.1118 22.823 67.5498 22.925C67.9878 23.027 68.3898 23.165 68.7558 23.339C69.1218 23.513 69.4158 23.759 69.6378 24.077C69.8598 24.395 69.9708 24.812 69.9708 25.328C69.9708 25.88 69.8178 26.357 69.5118 26.759C69.2058 27.161 68.7618 27.473 68.1798 27.695C67.5978 27.917 66.8928 28.028 66.0648 28.028Z" fill-rule="evenodd"/>
<path clip-path="url(#TextBounds_6)" d="M76.3248 28.028C75.3408 28.028 74.4768 27.821 73.7328 27.407C72.9888 26.993 72.4068 26.423 71.9868 25.697C71.5668 24.971 71.3568 24.14 71.3568 23.204C71.3568 22.268 71.5578 21.44 71.9598 20.72C72.3618 20 72.9138 19.433 73.6158 19.019C74.3178 18.605 75.1068 18.398 75.9828 18.398C76.8708 18.398 77.6598 18.599 78.3498 19.001C79.0398 19.403 79.5828 19.967 79.9788 20.693C80.3748 21.419 80.5728 22.256 80.5728 23.204C80.5728 23.264 80.5698 23.327 80.5638 23.393C80.5578 23.459 80.5548 23.528 80.5548 23.6L72.3288 23.6L72.3288 22.646L79.8708 22.646L79.3668 23.024C79.3668 22.34 79.2198 21.731 78.9258 21.197C78.6318 20.663 78.2328 20.246 77.7288 19.946C77.2248 19.646 76.6428 19.496 75.9828 19.496C75.3348 19.496 74.7528 19.646 74.2368 19.946C73.7208 20.246 73.3188 20.666 73.0308 21.206C72.7428 21.746 72.5988 22.364 72.5988 23.06L72.5988 23.258C72.5988 23.978 72.7578 24.611 73.0758 25.157C73.3938 25.703 73.8378 26.129 74.4078 26.435C74.9778 26.741 75.6288 26.894 76.3608 26.894C76.9368 26.894 77.4738 26.792 77.9718 26.588C78.4698 26.384 78.8988 26.072 79.2588 25.652L79.9788 26.48C79.5588 26.984 79.0338 27.368 78.4038 27.632C77.7738 27.896 77.0808 28.028 76.3248 28.028Z" fill-rule="evenodd"/>
<path clip-path="url(#TextBounds_6)" d="M88.8348 27.938L88.8348 25.85L88.7808 25.508L88.7808 22.016C88.7808 21.212 88.5558 20.594 88.1058 20.162C87.6558 19.73 86.9868 19.514 86.0988 19.514C85.4868 19.514 84.9048 19.616 84.3528 19.82C83.8008 20.024 83.3328 20.294 82.9488 20.63L82.3728 19.676C82.8528 19.268 83.4288 18.953 84.1008 18.731C84.7728 18.509 85.4808 18.398 86.2248 18.398C87.4488 18.398 88.3938 18.701 89.0598 19.307C89.7258 19.913 90.0588 20.834 90.0588 22.07L90.0588 27.938L88.8348 27.938ZM85.5768 28.028C84.8688 28.028 84.2538 27.911 83.7318 27.677C83.2098 27.443 82.8108 27.119 82.5348 26.705C82.2588 26.291 82.1208 25.814 82.1208 25.274C82.1208 24.782 82.2378 24.335 82.4718 23.933C82.7058 23.531 83.0898 23.207 83.6238 22.961C84.1578 22.715 84.8748 22.592 85.7748 22.592L89.0328 22.592L89.0328 23.546L85.8108 23.546C84.8988 23.546 84.2658 23.708 83.9118 24.032C83.5578 24.356 83.3808 24.758 83.3808 25.238C83.3808 25.778 83.5908 26.21 84.0108 26.534C84.4308 26.858 85.0188 27.02 85.7748 27.02C86.4948 27.02 87.1158 26.855 87.6378 26.525C88.1598 26.195 88.5408 25.718 88.7808 25.094L89.0688 25.976C88.8288 26.6 88.4118 27.098 87.8178 27.47C87.2238 27.842 86.4768 28.028 85.5768 28.028Z" fill-rule="evenodd"/>
<path clip-path="url(#TextBounds_6)" d="M93.5328 27.938L93.5328 18.488L94.7568 18.488L94.7568 21.062L94.6308 20.612C94.8948 19.892 95.3388 19.343 95.9628 18.965C96.5868 18.587 97.3608 18.398 98.2848 18.398L98.2848 19.64C98.2368 19.64 98.1888 19.637 98.1408 19.631C98.0928 19.625 98.0448 19.622 97.9968 19.622C97.0008 19.622 96.2208 19.925 95.6568 20.531C95.0928 21.137 94.8108 21.998 94.8108 23.114L94.8108 27.938L93.5328 27.938Z" fill-rule="evenodd"/>
<path clip-path="url(#TextBounds_6)" d="M104.441 28.028C103.505 28.028 102.668 27.821 101.93 27.407C101.192 26.993 100.613 26.423 100.193 25.697C99.7728 24.971 99.5628 24.14 99.5628 23.204C99.5628 22.256 99.7728 21.422 100.193 20.702C100.613 19.982 101.192 19.418 101.93 19.01C102.668 18.602 103.505 18.398 104.441 18.398C105.245 18.398 105.971 18.554 106.619 18.866C107.267 19.178 107.777 19.646 108.149 20.27L107.195 20.918C106.871 20.438 106.469 20.084 105.989 19.856C105.509 19.628 104.987 19.514 104.423 19.514C103.751 19.514 103.145 19.667 102.605 19.973C102.065 20.279 101.639 20.708 101.327 21.26C101.015 21.812 100.859 22.46 100.859 23.204C100.859 23.948 101.015 24.596 101.327 25.148C101.639 25.7 102.065 26.129 102.605 26.435C103.145 26.741 103.751 26.894 104.423 26.894C104.987 26.894 105.509 26.78 105.989 26.552C106.469 26.324 106.871 25.976 107.195 25.508L108.149 26.156C107.777 26.768 107.267 27.233 106.619 27.551C105.971 27.869 105.245 28.028 104.441 28.028Z" fill-rule="evenodd"/>
<path clip-path="url(#TextBounds_6)" d="M115.331 18.398C116.099 18.398 116.774 18.545 117.356 18.839C117.938 19.133 118.394 19.58 118.724 20.18C119.054 20.78 119.219 21.536 119.219 22.448L119.219 27.938L117.941 27.938L117.941 22.574C117.941 21.578 117.692 20.825 117.194 20.315C116.696 19.805 115.997 19.55 115.097 19.55C114.425 19.55 113.84 19.685 113.342 19.955C112.844 20.225 112.46 20.615 112.19 21.125C111.92 21.635 111.785 22.25 111.785 22.97L111.785 27.938L110.507 27.938L110.507 14.582L111.785 14.582L111.785 21.08L111.533 20.594C111.833 19.91 112.313 19.373 112.973 18.983C113.633 18.593 114.419 18.398 115.331 18.398Z" fill-rule="evenodd"/>
</g>
</g>
</g>
</svg>
