<svg xmlns="http://www.w3.org/2000/svg" viewBox="0 0 551.6 535.38">
   <title>testimonial</title>
   <g id="background">
      <g id="details">
         <path d="M80.19,469.64V470a1.5,1.5,0,0,0,3,0v-.38a1.5,1.5,0,0,0-3,0Z" transform="translate(-34.94 -32.46)" style="fill:#e8e8e8"/>
         <path d="M81.15,470q-.41,27.45,1.1,54.86c0,1,1.55,1,1.5,0q-1.5-27.4-1.1-54.86a.75.75,0,0,0-1.5,0Z" transform="translate(-34.94 -32.46)" style="fill:#e8e8e8"/>
         <path d="M83.44,525c6.75,5.49,15.24,6.71,23.71,6.76,9.09.05,18.11-1.28,26-5.93a.75.75,0,0,0-.76-1.3c-7.24,4.25-15.35,5.61-23.65,5.72-8.53.11-17.42-.74-24.28-6.31-.74-.6-1.81.45-1.06,1.06Z" transform="translate(-34.94 -32.46)" style="fill:#e8e8e8"/>
         <path d="M81.76,470.14c17.31,4.63,35.61,8.39,53.1,2.5.91-.3.52-1.75-.4-1.45-17.25,5.81-35.23,2.07-52.3-2.49a.75.75,0,0,0-.4,1.44Z" transform="translate(-34.94 -32.46)" style="fill:#e8e8e8"/>
         <path d="M134.44,471.94q-.13,26.13-2.46,52.16c-.09,1,1.41,1,1.5,0q2.33-26,2.46-52.16a.75.75,0,0,0-1.5,0Z" transform="translate(-34.94 -32.46)" style="fill:#e8e8e8"/>
         <path d="M82.52,468.5c-3.27-2.11-18.6-16.3-11-20.5a.77.77,0,0,0,.27-1c-1-1.74-9-17.25-3.61-18,.42-.05.92-.44.72-.95-2.22-5.57-7.47-30.35,5.51-27.06a.75.75,0,0,0,.4-1.45c-8.3-2.1-10.45,7.68-10.42,13.86a39,39,0,0,0,.51,6.11c.29,1.78,2.35,6.12,2.11,7.74-.15,1.05-2,2.43-2.14,4.38-.27,3.87,1.65,8.23,3.25,11.67.34.74,1.64,2.51,1.63,3.44,0,.77-.44.59-.66,1.34a10.65,10.65,0,0,0-.73,2.6c-.5,7.61,7.71,15.4,13.45,19.11.81.52,1.57-.78.76-1.3Z" transform="translate(-34.94 -32.46)" style="fill:#e8e8e8"/>
         <path d="M78.26,410.33a27.74,27.74,0,0,1-1.83-6.67,16.25,16.25,0,0,1-.28-3.41c-.43-2.79,1-4.1,4.42-3.92a.76.76,0,0,0,1.37-.18c1.8-4.75,4.4-11.1,10.4-11.44,6.25-.35,9.86,6,11.15,11.15,2.14,8.62,2.19,18.15,2,27a.75.75,0,0,0,1.5,0,140.46,140.46,0,0,0-1.08-22c-.71-5.32-1.87-11.07-6.13-14.75-9-7.76-16.19,1.53-19.26,9.64l1.37-.18a3.56,3.56,0,0,0-5.63-.5c-3.68,3.54-.93,11.89.57,15.66.36.88,1.81.5,1.45-.4Z" transform="translate(-34.94 -32.46)" style="fill:#e8e8e8"/>
         <path d="M107.29,416.52q7.36-4.2,8.74,1.57a.76.76,0,0,0,1.37.18,18.16,18.16,0,0,1,2.14-3c1.34-2,3-2.1,5-.25,2.19-.15,3.44.65,3.73,2.39,1.65,3.25.69,8.14,0,11.47-1.17,5.25-3,10.41-4.6,15.56-.28.93,1.17,1.32,1.45.4,2.52-8.28,8.75-20.84,4.07-29.36-3.76-6.83-10-2.86-13.09,2l1.38.18c-.94-2.59-2.62-5.29-5.56-5.82a5.13,5.13,0,0,0-6.08,4.25c-.17.95,1.28,1.35,1.45.4Z" transform="translate(-34.94 -32.46)" style="fill:#e8e8e8"/>
         <path d="M128.36,437.59l2.3-1.32a.76.76,0,0,0,1.37.18c1-1.94,3.3-7.19,5.67-7.59l5.41,2.95,0,1.67c.35,2.15-1,5.76-1.8,7.66-.37.86.83,1.64,1.29.76,1-1.88,4.09-7.86,6.92-1.16.45,1.07-.3,3.52-.45,4.59a46,46,0,0,1-2.26,9,47.41,47.41,0,0,1-10.67,16.81c-.67.69.39,1.75,1.06,1.06a48.36,48.36,0,0,0,13.58-28.36c.3-2.76,1-6.83-2.46-7.8s-5.69,2.51-7,5.06l1.29.76c1.46-3.42,4.47-12.89-.3-15.19-5.29-2.56-9.8,5.5-11.6,9l1.37.18c-1.28-3.52-4.26-1.07-5.19,1.31-.35.9,1.1,1.29,1.45.4Z" transform="translate(-34.94 -32.46)" style="fill:#e8e8e8"/>
         <path d="M65,557.37H241.05a.75.75,0,0,0,0-1.5H65a.75.75,0,0,0,0,1.5Z" transform="translate(-34.94 -32.46)" style="fill:#e8e8e8"/>
         <path d="M153.55,542.7H283.49a.75.75,0,0,0,0-1.5H153.55a.75.75,0,0,0,0,1.5Z" transform="translate(-34.94 -32.46)" style="fill:#e8e8e8"/>
         <path d="M35.66,535.37H81.24a.75.75,0,0,0,0-1.5H35.66a.75.75,0,0,0,0,1.5Z" transform="translate(-34.94 -32.46)" style="fill:#e8e8e8"/>
         <path d="M141,517.55H271.44a.75.75,0,0,0,0-1.5H141a.75.75,0,0,0,0,1.5Z" transform="translate(-34.94 -32.46)" style="fill:#e8e8e8"/>
         <path d="M242.1,526.46H371.51a.75.75,0,0,0,0-1.5H242.1a.75.75,0,0,0,0,1.5Z" transform="translate(-34.94 -32.46)" style="fill:#e8e8e8"/>
         <path d="M405.05,543.75H585.81a.75.75,0,0,0,0-1.5H405.05a.75.75,0,0,0,0,1.5Z" transform="translate(-34.94 -32.46)" style="fill:#e8e8e8"/>
         <path d="M459,529.08h83.31a.75.75,0,0,0,0-1.5H459a.75.75,0,0,0,0,1.5Z" transform="translate(-34.94 -32.46)" style="fill:#e8e8e8"/>
         <path d="M49.26,312.3c42.78-6.88,79.86,20.05,117.14,36.16,34.63,15,72.58,19.33,110,15.82A314.79,314.79,0,0,0,339,351.61c.92-.28.53-1.73-.4-1.44C301,361.64,261.15,367.11,222,362.1a205.82,205.82,0,0,1-58.23-16.44c-17.94-8.05-35-17.92-53.27-25.34C91,312.39,70,307.46,48.87,310.85c-1,.16-.55,1.6.39,1.45Z" transform="translate(-34.94 -32.46)" style="fill:#e8e8e8"/>
         <path d="M245.11,330.28c65.93,19.59,127.44-23.74,186.22-46.43,17.91-6.91,36.42-12.2,55.58-14,1-.09,1-1.59,0-1.5-66,6.16-119.34,52.41-184.18,63.17-19.1,3.17-38.58,2.84-57.22-2.69a.75.75,0,0,0-.4,1.44Z" transform="translate(-34.94 -32.46)" style="fill:#e8e8e8"/>
         <path d="M36,176c17.57-.16,33.4,8.23,49.32,14.6A499.16,499.16,0,0,0,133,206.9a503,503,0,0,0,99.41,17.84c1,.07.95-1.43,0-1.5a501,501,0,0,1-102.6-18.83,498.29,498.29,0,0,1-47.62-16.7c-14.92-6.1-29.76-13.4-46.25-13.25a.75.75,0,0,0,0,1.5Z" transform="translate(-34.94 -32.46)" style="fill:#e8e8e8"/>
         <path d="M207.94,187a234.31,234.31,0,0,0,118.54,5c20.35-4.45,39.75-12.07,59.13-19.56s39.09-14.36,59.19-19.9A559.37,559.37,0,0,1,515.09,138c.95-.14.55-1.58-.4-1.45A559.43,559.43,0,0,0,395.87,167c-19.26,7.24-38.28,15.29-58.15,20.76A229.42,229.42,0,0,1,277,195.9a233.63,233.63,0,0,1-68.66-10.35c-.92-.29-1.32,1.16-.4,1.45Z" transform="translate(-34.94 -32.46)" style="fill:#e8e8e8"/>
         <path d="M324.67,133.67c57.87-4.69,110-33.14,166.61-43.58a192.43,192.43,0,0,1,50.47-3c1,.08,1-1.42,0-1.5-58.14-4.67-111.88,22.16-166.58,37.16a275.36,275.36,0,0,1-50.5,9.4c-.95.08-1,1.58,0,1.5Z" transform="translate(-34.94 -32.46)" style="fill:#e8e8e8"/>
         <path d="M487.67,214.76a108,108,0,0,0,57.08-8.34c.88-.39.11-1.68-.76-1.29a106.57,106.57,0,0,1-56.32,8.13c-1-.12-.95,1.38,0,1.5Z" transform="translate(-34.94 -32.46)" style="fill:#e8e8e8"/>
         <circle cx="21.95" cy="42.51" r="1.56" style="fill:#6002EE"/>
         <circle cx="177.1" cy="290.53" r="5.83" style="fill:#6002EE"/>
         <circle cx="441.04" cy="14.41" r="3.65" style="fill:#6002EE"/>
         <circle cx="521.64" cy="127.9" r="6.04" style="fill:#6002EE"/>
         <circle cx="25.82" cy="160.14" r="5.43" style="fill:#969696"/>
         <circle cx="108.73" cy="270.29" r="5.27" style="fill:#969696"/>
         <circle cx="45.75" cy="24.74" r="2.31" style="fill:#969696"/>
         <circle cx="433.11" cy="88.39" r="3.3" style="fill:#969696"/>
         <circle cx="448.77" cy="288.77" r="4.08" style="fill:#969696"/>
      </g>
      <g id="desk">
         <rect x="70.93" y="0.5" width="311.09" height="225.44" rx="11.1" style="fill:#fff;stroke:#000;stroke-miterlimit:10"/>
         <rect x="57.06" y="222.82" width="342.27" height="18.55" rx="9.27"/>
         <circle cx="87.58" cy="22.43" r="2.83" style="fill:#6002EE"/>
         <circle cx="87.48" cy="53.55" r="2.72" style="fill:#6002EE"/>
         <circle cx="87.44" cy="151.7" r="3.01" style="fill:#6002EE"/>
         <circle cx="87.44" cy="188.76" r="2.97" style="fill:#6002EE"/>
         <path d="M133.57,51.58a1.5,1.5,0,0,0,0-3,1.5,1.5,0,0,0,0,3Z" transform="translate(-34.94 -32.46)"/>
         <path d="M138.4,51.27h54.88a.75.75,0,0,0,0-1.5H138.4a.75.75,0,0,0,0,1.5Z" transform="translate(-34.94 -32.46)"/>
         <path d="M132.69,56.54h14.49a.75.75,0,0,0,0-1.5H132.69a.75.75,0,0,0,0,1.5Z" transform="translate(-34.94 -32.46)"/>
         <path d="M136.65,60.49h51.8a.75.75,0,0,0,0-1.5h-51.8a.75.75,0,0,0,0,1.5Z" transform="translate(-34.94 -32.46)"/>
         <path d="M181.87,55.66h32a.75.75,0,0,0,0-1.5h-32a.75.75,0,0,0,0,1.5Z" transform="translate(-34.94 -32.46)"/>
         <path d="M127,97.81h43.9a.75.75,0,0,0,0-1.5H127a.75.75,0,0,0,0,1.5Z" transform="translate(-34.94 -32.46)"/>
         <path d="M140.6,91.23h25a.75.75,0,0,0,0-1.5h-25a.75.75,0,0,0,0,1.5Z" transform="translate(-34.94 -32.46)"/>
         <path d="M134,81.57h61.47a.75.75,0,0,0,0-1.5H134a.75.75,0,0,0,0,1.5Z" transform="translate(-34.94 -32.46)"/>
         <path d="M192.41,89H221a.75.75,0,0,0,0-1.5H192.41a.75.75,0,0,0,0,1.5Z" transform="translate(-34.94 -32.46)"/>
         <path d="M134.89,147.87h66.3a.75.75,0,0,0,0-1.5h-66.3a.75.75,0,0,0,0,1.5Z" transform="translate(-34.94 -32.46)"/>
         <path d="M122.16,160.6h26.78a.75.75,0,0,0,0-1.5H122.16a.75.75,0,0,0,0,1.5Z" transform="translate(-34.94 -32.46)"/>
         <path d="M150.26,169.38H195a.75.75,0,0,0,0-1.5H150.26a.75.75,0,0,0,0,1.5Z" transform="translate(-34.94 -32.46)"/>
         <path d="M168.7,161.92h50.93a.75.75,0,0,0,0-1.5H168.7a.75.75,0,0,0,0,1.5Z" transform="translate(-34.94 -32.46)"/>
         <path d="M211.29,170.7h32.49a.75.75,0,0,0,0-1.5H211.29a.75.75,0,0,0,0,1.5Z" transform="translate(-34.94 -32.46)"/>
         <path d="M145,185.63h69.37a.75.75,0,0,0,0-1.5H145a.75.75,0,0,0,0,1.5Z" transform="translate(-34.94 -32.46)"/>
         <path d="M139.72,220.31H163a.75.75,0,0,0,0-1.5H139.72a.75.75,0,0,0,0,1.5Z" transform="translate(-34.94 -32.46)"/>
         <path d="M141.48,228.21H194.6a.75.75,0,0,0,0-1.5H141.48a.75.75,0,0,0,0,1.5Z" transform="translate(-34.94 -32.46)"/>
         <path d="M179.67,221.63H242a.75.75,0,0,0,0-1.5H179.67a.75.75,0,0,0,0,1.5Z" transform="translate(-34.94 -32.46)"/>
         <path d="M217.87,228.21h25a.75.75,0,0,0,0-1.5h-25a.75.75,0,0,0,0,1.5Z" transform="translate(-34.94 -32.46)"/>
         <path d="M135.77,241h60.15a.75.75,0,0,0,0-1.5H135.77a.75.75,0,0,0,0,1.5Z" transform="translate(-34.94 -32.46)"/>
         <path d="M253.81,209.66c-3.08-1.3-6.48-3.17-8.42-6-1.48-2.15-1.76-6.21,2-6.25,2.25,0,3.93,2.12,5.17,3.72.59.77,1.65-.3,1.06-1.06-1.55-2-3.5-4.12-6.23-4.16a4.38,4.38,0,0,0-4.5,3.62c-1.16,5.6,6,9.65,10.16,11.43.88.37,1.64-.92.75-1.3Z" transform="translate(-34.94 -32.46)"/>
         <path d="M254,200.41a7.17,7.17,0,0,1,3.84-5.33,4.75,4.75,0,0,1,2.36-.7l3,3c.29,1.08-.71,2.91-1.13,3.77a26.76,26.76,0,0,1-8.33,9.69c-.76.56,0,1.87.76,1.29,4-3,12.95-11.32,9.63-17.22s-10.81.84-11.62,5.09c-.18.94,1.27,1.34,1.45.39Z" transform="translate(-34.94 -32.46)"/>
         <path d="M273.4,248.24c-3-.92-6.52-2.58-8.35-5.26-.82-1.18-1.22-2.25-.1-3.33a2.42,2.42,0,0,1,2.91-.55,9.14,9.14,0,0,1,3.5,2.92c.64.73,1.7-.34,1.06-1.06-1.42-1.62-3.08-3.4-5.36-3.6a3.81,3.81,0,0,0-4.28,2.82c-1,4.94,6.62,8.41,10.22,9.51.93.28,1.32-1.17.4-1.45Z" transform="translate(-34.94 -32.46)"/>
         <path d="M272,242.12a4.52,4.52,0,0,1,2.19-3.45c2-1.17,4.84,0,4.84,2.5s-3.33,5.47-4.84,7.41c-.59.75.46,1.82,1.06,1.06,2.37-3,8-7.93,3.8-11.77-3.35-3.07-7.88,0-8.49,3.85-.15.94,1.29,1.35,1.44.4Z" transform="translate(-34.94 -32.46)"/>
         <path d="M289.84,198a63.48,63.48,0,0,0,.3,14.05c.13.94,1.63.95,1.5,0a63.48,63.48,0,0,1-.3-14.05c.08-1-1.42-.95-1.5,0Z" transform="translate(-34.94 -32.46)"/>
         <path d="M291,198.33a19.29,19.29,0,0,1,8.13-.8c1,.1,1-1.4,0-1.5a20.2,20.2,0,0,0-8.53.86c-.92.29-.53,1.74.4,1.44Z" transform="translate(-34.94 -32.46)"/>
         <path d="M299.18,195.84a6.48,6.48,0,0,1,.76-3.4c.23-.39.81-1.43,1.28-1.59a1.57,1.57,0,0,1,2.09,1.11c.64,2.17.57,4.72.79,7,.09,1,1.6,1,1.5,0-.22-2.2-.29-4.47-.68-6.65-.23-1.28-.8-2.84-2.17-3.27-3.34-1-5.12,4.5-5.07,6.84a.75.75,0,0,0,1.5,0Z" transform="translate(-34.94 -32.46)"/>
         <path d="M305.42,200a65.3,65.3,0,0,0,11.68,1,.75.75,0,0,0,0-1.5,62.74,62.74,0,0,1-11.28-.91c-.94-.17-1.35,1.28-.4,1.45Z" transform="translate(-34.94 -32.46)"/>
         <path d="M293,214.63a129.54,129.54,0,0,0,25.44-.65c.95-.11,1-1.61,0-1.5a129.54,129.54,0,0,1-25.44.65c-1-.07-1,1.43,0,1.5Z" transform="translate(-34.94 -32.46)"/>
         <path d="M317.23,201.77a26.74,26.74,0,0,1,1.24,11.64c-.1,1,1.4,1,1.5,0a27.62,27.62,0,0,0-1.29-12c-.3-.91-1.75-.52-1.45.4Z" transform="translate(-34.94 -32.46)"/>
      </g>
      <g id="heart">
         <path d="M279.66,141.44c-50.36-11.17-84.28-32.06-84.18-52.73.06-12.24,11.81-29.95,27.09-30.48,13.57-.47,23.14,12.83,24.44,14.68-.15-1.64-1.37-17.95,9.43-25.81s27.28-2.31,34.83,4.36C306.69,65.06,303.12,101.69,279.66,141.44Z" transform="translate(-34.94 -32.46)" style="fill:#6002EE"/>
      </g>
   </g>
   <g id="character">
      <g id="hand_right" data-name="hand right">
         <path d="M418.41,147.93c2.11.45,3.12,2.58,5.33,7.43,6.77,14.83,10.15,22.25,12.33,28.37,3.22,9.07,4.83,13.6,5.91,17.88a139.51,139.51,0,0,1,3.58,21.76,264.17,264.17,0,0,1-.14,46.83c.56,3.86,1.26,9.23,1.81,15.7.5,6,.95,11.4.09,11.58-.49.1-1.53-1.51-3.91-8.76a16.49,16.49,0,0,1-1,9.93c-.49,1.1-1.92,4.27-3.36,4.14-1.09-.1-2.49-2.1-3.59-11.3q-2.38,9.06-3.49,8.9-1.52-.21-.65-17.65a2.69,2.69,0,0,1-2.4-.44c-1.72-1.66,1.16-6.54,4-15.19,1-3.21,1.74-5.92,2.19-7.82-.41-3.81-1.08-9.08-2.19-15.32a253.2,253.2,0,0,0-8.14-32.19c-4.66-15.22-7-22.83-10-28.26-5.72-10.25-10-12.93-9.66-19.58C405.56,155.35,413.55,146.88,418.41,147.93Z" transform="translate(-34.94 -32.46)" style="fill:#fff"/>
         <path d="M406.62,165c.86-.49,6.35,6.78,11.15,14.78,15.38,25.64,18.51,50.34,20.08,63.85,1.37,11.82,2.06,17.73,1.39,24.26-1,10.07-4,19-.84,20.91,1.28.78,3.09.15,4.37-.47,1.32,5.25.3,8.72-.36,10.33-.46,1.15-1.23,3-2.6,3.16s-2.42-1.21-3-1.86c-2.57-3.15-2.33-7.44-2.07-9.48q-2,10-2.81,9.92-1-.12,0-17.45c-1.83.24-2.65-.2-3.07-.64-1.77-1.9,1.34-6.68,3.91-14.42a68.83,68.83,0,0,0,2.51-10c-.54-3.22-1.38-8.07-2.51-13.94,0,0-2.17-11.28-4.46-21.19C422.5,197.37,404.9,166,406.62,165Z" transform="translate(-34.94 -32.46)" style="fill:#919191;opacity:0.23"/>
         <path d="M417.88,148.46c6.83,7.52,10.26,17.89,14.11,27.13a196,196,0,0,1,10,29.13c5.24,21.69,1.23,43.52,2.67,65.48.06,1,1.56,1,1.5,0-1.49-22.74,2.59-45.22-3.16-67.63-2.64-10.29-6.54-20.21-10.66-30-3.68-8.71-7-18.09-13.41-25.19-.65-.72-1.71.35-1.06,1.06Z" transform="translate(-34.94 -32.46)"/>
         <path d="M405.46,166.78c16.26,28.89,23.05,61,29.28,93.19.19.94,1.63.54,1.45-.4C429.93,227.22,423.08,195,406.76,166a.75.75,0,0,0-1.3.75Z" transform="translate(-34.94 -32.46)"/>
         <path d="M434.42,259.48c-1.68,4.74-3.21,9.53-4.53,14.39-.61,2.28-2.58,6.4-1.61,8.8,2.45,6.09,6.23-4.26,6.7-5.53.34-.9-1.11-1.29-1.44-.39-.4,1.09-.82,2.18-1.26,3.26q-3.64,1.59-2-1.44c-.18-1.68,1.12-4.37,1.58-6,1.2-4.28,2.57-8.5,4.05-12.68.33-.92-1.12-1.31-1.44-.4Z" transform="translate(-34.94 -32.46)"/>
         <path d="M444.2,271.24A131.14,131.14,0,0,1,447,296.76a.75.75,0,0,0,1.5,0,133.62,133.62,0,0,0-2.87-25.92c-.2-.94-1.65-.54-1.45.4Z" transform="translate(-34.94 -32.46)"/>
         <path d="M430.87,282.69a93.6,93.6,0,0,0-1.18,11.07c-.07,1.65-.9,6,1.09,7.16a1.66,1.66,0,0,0,2.35-.68c.81-1.21.87-3.62,1.16-5l1.41-6.75c.2-.94-1.25-1.34-1.44-.4l-1.42,6.75c-.2,1-.18,2.6-.71,3.37-.8,1.17-1,1-1-1.24a78.88,78.88,0,0,1,1.2-13.89c.16-.94-1.29-1.35-1.44-.4Z" transform="translate(-34.94 -32.46)"/>
         <path d="M434.88,287.92a29.12,29.12,0,0,0,1.09,11.7c.52,1.62,1.63,4.1,3.71,4.06,2.36,0,3-2.95,3.44-4.72a27.3,27.3,0,0,0,.38-10.84c-.15-.95-1.59-.55-1.45.4a25.87,25.87,0,0,1,.16,7,23.4,23.4,0,0,1-.53,3c-.28,1.1-.95,4.75-3.53,2.39-1.11-1-1.39-4.09-1.62-5.5a30.13,30.13,0,0,1-.15-7.53c.09-1-1.41-.95-1.5,0Z" transform="translate(-34.94 -32.46)"/>
         <path d="M440.56,301.81a92.47,92.47,0,0,1,.22-12.23c.08-1-1.42-.95-1.5,0a92.47,92.47,0,0,0-.22,12.23c0,1,1.54,1,1.5,0Z" transform="translate(-34.94 -32.46)"/>
         <path d="M442.66,288.72c0,3.73.49,8,4.46,9.48.9.34,1.29-1.1.4-1.44-3.24-1.24-3.35-5.12-3.36-8a.75.75,0,0,0-1.5,0Z" transform="translate(-34.94 -32.46)"/>
      </g>
      <g id="leg_right" data-name="leg right">
         <path d="M481.83,500.41l11.74,15.86c-2.84,3.12-6.82,7.4-11.74,12.34-11.89,11.92-17.63,16.07-17,17,.74,1.21,11.21-3,51.11-24.67l-19.39-30.55Z" transform="translate(-34.94 -32.46)"/>
         <path d="M439.47,261c1.22,4.46,3.07,11.55,5,20.32,6.77,30.77,8.86,56.46,10.64,79.38.43,5.6,1,13.3,1.45,22.53q12.13,32.13,27.15,66.27,8.67,19.59,17.54,38a32.86,32.86,0,0,1-26.94,23.37c-3.44-4.76-8.12-11.44-13.34-19.64-4.78-7.5-21.32-34-37.31-74.16-9.81-24.62-14.27-42-23.21-76.64-6.51-25.27-7.75-34.3-4.15-44.38C404.22,273.86,429.26,264.29,439.47,261Z" transform="translate(-34.94 -32.46)" style="fill:#fff"/>
         <path d="M439.47,261q1.32,25,2.27,50.68,1.47,39.94,2,78.49Q449,402.79,455,415.7a807.64,807.64,0,0,0,42.48,79.65c1.26-2.62,2.53-5.23,3.79-7.84q-6.53-13.51-12.91-27.66c-12.06-26.73-22.62-52.8-31.88-78a617.25,617.25,0,0,0-7.13-71.73C446.55,292.6,443.17,276.2,439.47,261Z" transform="translate(-34.94 -32.46)" style="fill:#919191;opacity:0.18"/>
         <path d="M440.19,263.9a756.5,756.5,0,0,1,15.62,119.35c.05,1,1.55,1,1.5,0A760.39,760.39,0,0,0,441.64,263.5c-.2-.95-1.65-.55-1.45.4Z" transform="translate(-34.94 -32.46)"/>
         <path d="M456.3,385.33a975.23,975.23,0,0,0,42.47,97.24c.44.86,1.73.1,1.3-.76a968.08,968.08,0,0,1-42.32-96.88c-.34-.89-1.79-.5-1.45.4Z" transform="translate(-34.94 -32.46)"/>
         <path d="M398.15,332.92A478.12,478.12,0,0,0,471.68,509.1c.54.79,1.84,0,1.29-.76A477,477,0,0,1,399.6,332.52c-.19-.95-1.63-.55-1.45.4Z" transform="translate(-34.94 -32.46)"/>
         <path d="M474.31,511.63c13.85-1,22.77-11.8,27.67-23.92.36-.89-1.09-1.28-1.45-.4-4.62,11.43-13.11,21.84-26.22,22.82-1,.07-1,1.57,0,1.5Z" transform="translate(-34.94 -32.46)"/>
      </g>
      <g id="leg_left" data-name="leg left">
         <path d="M382.36,537.22q.38,5.85.76,11.7a114.94,114.94,0,0,0-45.87,18.92l67.08-8q-1.72-14.32-3.44-28.66Z" transform="translate(-34.94 -32.46)"/>
         <path d="M372.69,283c-.12,5.22-.31,13.19-.58,22.88-1.32,47.94-2.93,82.36-3.3,91-1.15,27.18-1.35,69.45,3.23,134.2a29.25,29.25,0,0,0,10,6c14.43,5.11,27.9-3.44,30-4.82-.24-6.51-.54-15.43-.81-26-.33-12.65-.71-27.3-.75-43.95,0-13.32.15-30.93,1-51.89,1.64-8.67,3.67-19.52,5.95-32.05,4.91-27,4.36-25.31,8.85-50.23,3.63-20.12,4.79-25.62,6.1-36.71,2.64-22.34,3.87-33.59-.44-37.13C421.16,245.5,385.07,273.12,372.69,283Z" transform="translate(-34.94 -32.46)" style="fill:#fff"/>
         <path d="M418.73,279.54q-2.55,20.32-6,41.57c-5.1,31.33-11.23,60.94-18,88.7a363.78,363.78,0,0,1,3.43,51A364.82,364.82,0,0,1,390,536.23a19.81,19.81,0,0,0,11.07,1.06A20.09,20.09,0,0,0,412.15,531q-1-23.3-1.46-47.51-.69-36.63,0-71.26C416.27,371.92,423,340,428,318.31c6.42-27.5,13.3-51.66,8-54.1C432.45,262.55,424.64,271.73,418.73,279.54Z" transform="translate(-34.94 -32.46)" style="fill:#919191;opacity:0.15"/>
         <path d="M433.42,279.94q-10.65,66.78-23.27,133.24c-.18.94,1.27,1.35,1.45.4q12.61-66.45,23.27-133.24c.15-.95-1.3-1.36-1.45-.4Z" transform="translate(-34.94 -32.46)"/>
         <path d="M410.32,413.33q-1.65,58.8,1.08,117.62c.05,1,1.55,1,1.5,0q-2.73-58.79-1.08-117.62a.75.75,0,0,0-1.5,0Z" transform="translate(-34.94 -32.46)"/>
         <path d="M372.66,286.44a1835.13,1835.13,0,0,0-1.2,243.93c.06,1,1.56,1,1.5,0a1835.13,1835.13,0,0,1,1.2-243.93c.06-1-1.44-1-1.5,0Z" transform="translate(-34.94 -32.46)"/>
         <path d="M371.51,531.6c11.56,11,28,8.56,40.87,1.34.84-.47.08-1.77-.76-1.3-12.24,6.88-28,9.45-39.05-1.1-.7-.67-1.76.39-1.06,1.06Z" transform="translate(-34.94 -32.46)"/>
      </g>
      <g id="torso">
         <path d="M388,147.53c-13.61,5.12-19.72,18.8-26.43,33.81-3.44,7.69-6.12,13.87-5.86,22.29.25,8.12,3.06,12.64,6.61,21.89a155.59,155.59,0,0,1,8.38,31.67q1.26,16.11,2.51,32.24a104.27,104.27,0,0,0,23.11.36A107.49,107.49,0,0,0,443,273.65a315.13,315.13,0,0,1-8.49-30.9c-12-54.24-3.35-84.08-21-94.54C402.9,141.89,389.7,146.88,388,147.53Z" transform="translate(-34.94 -32.46)" style="fill:#6002EE"/>
      </g>
      <g id="head">
         <path d="M370,95.47c-2,1.15-3.18,2.54-7,8.6-3,4.77-6.87,11.32-11.1,19.44l4.22-1.17a50.52,50.52,0,0,0,1.49,6.92,34.25,34.25,0,0,0,4,9.72,26.23,26.23,0,0,0,8.25,8,19.65,19.65,0,0,0,7-1.38,19.36,19.36,0,0,0,4.23-2.32l5.08,6.63a24.52,24.52,0,0,0,5.08-3.49c6.93-6.19,8.35-14.75,9.31-20.49.9-5.46,1.64-9.93-.16-15.47A24,24,0,0,0,392.75,99C386.67,94.18,376.85,91.53,370,95.47Z" transform="translate(-34.94 -32.46)" style="fill:#fff"/>
         <path d="M386.66,111.15a36,36,0,0,1-2.28,13.19,37.84,37.84,0,0,1-8.27,12.84,38.6,38.6,0,0,1-9.69,7.22,8.24,8.24,0,0,0,3.52,2.6c3.55,1.31,8-.17,11.23-3.7l4.22,4.6a48.52,48.52,0,0,1,1.62-5.1c4-10.54,9.18-13,11.79-22.33.94-3.38,2-7.26,0-9.5S391.89,108.81,386.66,111.15Z" transform="translate(-34.94 -32.46)" style="fill:#919191;opacity:0.30000000000000004"/>
         <path d="M364,101.51a152.89,152.89,0,0,0-13.28,21.75.76.76,0,0,0,.85,1.1,45.91,45.91,0,0,0,6.27-1.84c.9-.33.51-1.78-.4-1.45a44.58,44.58,0,0,1-6.27,1.85L352,124a152.39,152.39,0,0,1,13.29-21.75c.57-.78-.73-1.53-1.3-.76Z" transform="translate(-34.94 -32.46)"/>
         <path d="M356.16,121.94c0,8.8,3.42,18.1,10.31,23.91,6,5.07,14.89-1,19.28-5.65.66-.7-.4-1.77-1.06-1.06a22.78,22.78,0,0,1-9.49,6.32c-5,1.69-8.86-1.25-11.68-5.1a31.11,31.11,0,0,1-5.86-18.42.75.75,0,0,0-1.5,0Z" transform="translate(-34.94 -32.46)"/>
         <path d="M358.7,130.31a8.8,8.8,0,0,0,7.3-5.75c.34-.91-1.11-1.3-1.44-.4a7.24,7.24,0,0,1-5.86,4.65c-.94.11-.95,1.62,0,1.5Z" transform="translate(-34.94 -32.46)"/>
         <path d="M364.2,124.22a1.68,1.68,0,0,1,1.53,1c.43.86,1.72.1,1.29-.76a3.16,3.16,0,0,0-2.82-1.72.75.75,0,0,0,0,1.5Z" transform="translate(-34.94 -32.46)"/>
         <path d="M367.54,104a6.41,6.41,0,0,0-1.18,4.13.75.75,0,0,0,1.39.37,9.48,9.48,0,0,0,1.41-4.35c.07-1-1.43-1-1.5,0a7.86,7.86,0,0,1-1.2,3.6l1.4.38a5.06,5.06,0,0,1,1-3.37c.56-.79-.74-1.54-1.29-.76Z" transform="translate(-34.94 -32.46)"/>
         <path d="M367.5,115a.75.75,0,0,0,0-1.5.75.75,0,0,0,0,1.5Z" transform="translate(-34.94 -32.46)"/>
         <path d="M372.13,113.44a.75.75,0,0,0,0-1.5.75.75,0,0,0,0,1.5Z" transform="translate(-34.94 -32.46)"/>
         <path d="M371,116.52a.75.75,0,0,0,0-1.5.75.75,0,0,0,0,1.5Z" transform="translate(-34.94 -32.46)"/>
         <path d="M388.72,112.89c.72-1.79,3.79-2,5.31-1.62,2.33.6,3.35,2.78,3.61,5,.48,4.29-2.65,8.47-7.27,7.63-.94-.18-1.34,1.27-.4,1.44,6.41,1.18,10.64-5.24,8.81-11.08-.73-2.31-2.39-4.35-4.89-4.72s-5.65.5-6.61,2.91c-.36.9,1.09,1.28,1.44.4Z" transform="translate(-34.94 -32.46)"/>
         <path d="M380.64,143.83a43.74,43.74,0,0,1,4.22,4.6c.6.76,1.65-.31,1.06-1.06a43.74,43.74,0,0,0-4.22-4.6c-.7-.67-1.76.39-1.06,1.06Z" transform="translate(-34.94 -32.46)"/>
         <path d="M385.22,139.67a26.92,26.92,0,0,1,4.95-15,7.86,7.86,0,0,0,7.5-3.76c1.54-2.64,1.6-6.54-.84-8.78s-7.27-2.19-10.2,1a17.08,17.08,0,0,1-9-2.09c-7.72-4.31-8.85-13.28-9-14.34l-5,6.43c-.58.32-7.45,4-10.87,1.34-3.65-2.88-1.2-11.35,2.09-16.14,5.35-7.78,15-8.8,17-9,9.78-7,17.32-6.1,19.72-5.68,9.73,1.74,15.74,10.55,23,21.22a96.85,96.85,0,0,1,8.37,14.95c12.8,6.44,21,18.55,20.92,31.37,0,2.28-.36,16.63-11.95,24.21-12.91,8.44-27.92.75-29.89-.3C401.08,164.55,385.14,155.72,385.22,139.67Z" transform="translate(-34.94 -32.46)" style="fill:#969696"/>
      </g>
      <g id="hand_left" data-name="hand left">
         <path d="M386.25,149.93a26,26,0,0,0-9.18-5.21c-5-1.57-7.84-.68-15-.25-7.63.46-14.34-.1-27.77-1.22-4.45-.37-8.07-.77-10.35-1-7.27-4-14.85-8.37-22.64-13.25-7.38-4.63-14.28-9.28-20.72-13.85-1.12-5.62-3.5-15.29-7.85-20.43-.6-.71-1.75-2-2.49-1.76-1.25.48-.64,5.14.06,9-1.77-1.77-4.59-4.58-8-8.07-7-7.06-9-9.15-9.59-8.75s-.2,2.53,4.68,12.07A62.44,62.44,0,0,0,249,90.59c-2.6-1.73-3.91-2.31-5.51-2.4a9.29,9.29,0,0,0-6.1,2.13,33.12,33.12,0,0,0,2.27,6.38,36,36,0,0,0,12.73,14.48c-8.36-1.75-10.43-1.56-10.62-1s2.05,2,3.88,3.14a33.92,33.92,0,0,0,8.08,3.4c1.62.46,3,.74,3.89.91a30.53,30.53,0,0,0,4.49,2.81A31.32,31.32,0,0,0,269,123c1.19,1.37,2.89,3.3,5,5.54a176.23,176.23,0,0,0,24.25,21.09c4.81,3.58,11.1,8,18.76,12.58,10.41,1.81,18.79,3.78,24.59,5.26,13.53,3.47,20,6.09,29.75,4.48,4.52-.75,10-1.74,13.41-6.46C389.21,159.32,386.69,151.27,386.25,149.93Z" transform="translate(-34.94 -32.46)" style="fill:#fff"/>
         <path d="M242.79,111.46l10.25,1.4q8.82,1.19,17.55,2.3c2.42,2.67,5.9,6.32,10.35,10.36,5,4.55,20.05,17.55,38.26,25.31,28.23,12,56.53,8.23,68.16,6a15.55,15.55,0,0,1-2.58,8.64c-5.17,7.59-15.45,6.86-15.95,6.81q-9-1.47-18.23-3.12-17-3-33.12-6.42c-5.68-3.74-11.56-7.9-17.55-12.53a282.24,282.24,0,0,1-30.2-27,31.12,31.12,0,0,1-5.42-1.53c-5.21-2-5.32-3.71-9.54-5.09-3.88-1.27-5.45-.38-8.63-2.3A14.22,14.22,0,0,1,242.79,111.46Z" transform="translate(-34.94 -32.46)" style="fill:#919191;opacity:0.19"/>
         <path d="M280.17,115.76a446.47,446.47,0,0,0,43.36,27.1c.85.47,1.61-.83.76-1.29a447.29,447.29,0,0,1-43.36-27.11c-.79-.56-1.54.74-.76,1.3Z" transform="translate(-34.94 -32.46)"/>
         <path d="M324.1,142.82a273.14,273.14,0,0,0,32.7,2.39c8.41.1,21.95-2.86,28,4.6.61.75,1.67-.31,1.06-1.06-5.5-6.81-15.53-5.11-23.25-5a272.09,272.09,0,0,1-38.48-2.4c-1-.12-.94,1.38,0,1.5Z" transform="translate(-34.94 -32.46)"/>
         <path d="M316.83,163q25.73,5.92,51.8,10.1c.95.15,1.35-1.3.4-1.45q-26.07-4.17-51.8-10.09c-.94-.22-1.34,1.23-.4,1.44Z" transform="translate(-34.94 -32.46)"/>
         <path d="M268.73,124.23a244.61,244.61,0,0,0,48.37,39.2c.82.51,1.57-.78.75-1.29a243.58,243.58,0,0,1-48.06-39c-.67-.69-1.73.37-1.06,1.07Z" transform="translate(-34.94 -32.46)"/>
         <path d="M281.25,114.26c-1.4-4.3-2.94-8.55-4.67-12.72-1.05-2.5-2.12-7.25-4.5-8.84-5.32-3.57-3,6.64-2.45,8.19.31.91,1.76.52,1.45-.4-.5-1.44-3.18-8,1.22-4.92,1.2.84,2.66,6,3.14,7.11,1.61,3.93,3.05,7.93,4.36,12,.3.92,1.75.53,1.45-.39Z" transform="translate(-34.94 -32.46)"/>
         <path d="M269,122.28c-5.21-.56-9.1-4.77-14.13-6.06-2.42-.62-5-.78-7.32-1.67l-2.44-1.2.08-3c.65-.62,5.92,1.24,7,1.6.92.31,1.31-1.14.4-1.44-2-.66-8.92-3.22-10.79-1.41-1.61,1.57-.08,3.36,1.31,4.66,3.64,3.42,9.17,3,13.55,4.7s7.57,4.86,12.3,5.37c1,.11.95-1.4,0-1.5Z" transform="translate(-34.94 -32.46)"/>
         <path d="M253.38,109.71c-6.84-5.09-13.41-10.87-15.23-19.59-.19-.94-1.64-.54-1.44.4,1.9,9.1,8.76,15.17,15.92,20.48.77.58,1.52-.72.75-1.29Z" transform="translate(-34.94 -32.46)"/>
         <path d="M238.81,89.87c4.75-4.7,15,4.61,18,7.81.66.71,1.72-.35,1.06-1.06-3.77-4.07-14.45-13.4-20.09-7.81-.69.68.37,1.74,1.06,1.06Z" transform="translate(-34.94 -32.46)"/>
         <path d="M258.4,95.66a20.23,20.23,0,0,1-5.2-10c-.19-.94-1.64-.54-1.44.4a21.63,21.63,0,0,0,5.57,10.64c.67.7,1.73-.36,1.07-1.06Z" transform="translate(-34.94 -32.46)"/>
         <path d="M252.18,85.66c7.55,3.74,10.84,12.24,17.71,16.89.8.54,1.55-.76.75-1.3-6.87-4.65-10.11-13.12-17.7-16.88-.86-.43-1.62.87-.76,1.29Z" transform="translate(-34.94 -32.46)"/>
         <path d="M238,89.26a58.47,58.47,0,0,0,15.39,12.43c.84.47,1.6-.83.76-1.29a57.53,57.53,0,0,1-15.09-12.2c-.64-.72-1.7.34-1.06,1.06Z" transform="translate(-34.94 -32.46)"/>
      </g>
   </g>
</svg>
